<?xml version="1.0" encoding="utf-8"?>
<!-- Generator: Adobe Illustrator 16.0.4, SVG Export Plug-In . SVG Version: 6.00 Build 0)  -->
<!DOCTYPE svg PUBLIC "-//W3C//DTD SVG 1.1//EN" "http://www.w3.org/Graphics/SVG/1.1/DTD/svg11.dtd">
<svg version="1.1" id="Layer_1" xmlns="http://www.w3.org/2000/svg" xmlns:xlink="http://www.w3.org/1999/xlink" x="0px" y="0px"
	 width="288px" height="288px" viewBox="0 0 288 288" enable-background="new 0 0 288 288" xml:space="preserve">
<g display="none">
	<path d="M240.24,138.48c0,3.76,0,7.52,0,11.28c-0.07,0.386-0.16,0.769-0.207,1.156c-0.428,3.488-0.643,7.018-1.304,10.461
		c-4.974,25.912-18.249,46.554-39.799,61.755c-13.045,9.201-27.608,14.609-43.48,16.447c-1.976,0.229-3.953,0.441-5.931,0.661
		c-3.439,0-6.879,0-10.319,0c-0.43-0.07-0.859-0.146-1.29-0.21c-5.172-0.755-10.433-1.132-15.501-2.327
		c-21.897-5.162-39.866-16.671-53.782-34.345c-11.085-14.078-17.629-30.097-19.724-47.91c-0.242-2.054-0.443-4.112-0.664-6.168
		c0-3.44,0-6.88,0-10.32c0.069-0.348,0.181-0.692,0.203-1.043c0.415-6.643,1.495-13.177,3.33-19.573
		c6.245-21.769,18.588-39.283,36.985-52.457c13.186-9.442,27.909-15.056,44.023-16.981c1.978-0.236,3.959-0.444,5.939-0.666
		c3.76,0,7.52,0,11.28,0c0.383,0.074,0.763,0.188,1.148,0.216c8.533,0.597,16.851,2.274,24.905,5.15
		c19.609,7.001,35.391,19.063,47.265,36.16c8.96,12.9,14.335,27.2,16.237,42.797C239.797,134.534,240.013,136.507,240.24,138.48z
		 M207.518,121.103c-0.318-0.999-0.572-1.923-0.905-2.817c-0.656-1.763-1.683-2.145-3.375-1.284
		c-2.294,1.168-3.022,3.197-3.256,5.614c-0.146,1.516-0.626,3.002-0.991,4.493c-0.047,0.189-0.293,0.349-0.476,0.482
		c-1.281,0.927-1.881,2.163-2.017,3.752c-0.42,4.933-0.928,9.858-1.402,14.787c-0.075,0.786-0.445,1.285-1.103,1.823
		c-2.124,1.736-4.213,3.542-6.116,5.514c-2.272,2.354-4.27,4.97-6.518,7.349c-1.749,1.852-3.831,2.877-6.601,2.643
		c-4.043-0.341-7.941,0.562-11.624,2.32c-5.289,2.525-9.409,6.439-12.943,11.003c-4.585,5.922-7.103,12.514-6.44,20.163
		c0.319,3.692,0.331,7.412,0.472,11.119c0.025,0.661,0.004,1.324,0.004,2.088c8.824,0.415,17.465,0.138,26.149-0.316
		c0-2.568,0.014-4.964-0.003-7.358c-0.03-4.332,1.658-7.703,5.368-10.074c7.911-5.058,15.792-10.162,23.654-15.294
		c0.607-0.396,1.2-1.084,1.421-1.761c1.727-5.298,3.916-10.375,6.667-15.229c1.513-2.672,2.792-5.479,4.104-8.259
		c0.914-1.937,1.223-3.911,0.912-6.14c-0.543-3.906-0.784-7.865-0.919-11.811c-0.097-2.829,0.209-5.671,0.294-8.508
		C211.961,122.564,210.338,120.971,207.518,121.103z M115.151,209.85c8.784,0.412,17.429,0.749,26.153,0.284
		c0-0.624-0.015-1.061,0.002-1.496c0.155-4.066,0.339-8.133,0.463-12.2c0.049-1.595,0.083-3.205-0.074-4.788
		c-0.481-4.846-2.37-9.176-5.131-13.138c-3.186-4.572-7.009-8.503-11.786-11.444c-4.648-2.861-9.734-3.974-15.133-3.628
		c-1.479,0.095-2.732-0.266-3.736-1.214c-2.027-1.912-4.082-3.824-5.877-5.947c-2.69-3.181-5.284-6.416-8.888-8.655
		c-0.355-0.221-0.611-0.828-0.659-1.282c-0.518-4.962-1.013-9.928-1.45-14.898c-0.143-1.618-0.72-2.921-2.064-3.861
		c-0.188-0.131-0.451-0.289-0.494-0.477c-0.365-1.613-0.816-3.221-0.993-4.857c-0.266-2.458-1.21-4.372-3.561-5.389
		c-1.473-0.637-2.364-0.272-2.944,1.217c-0.388,0.995-0.68,2.027-1.011,3.027c-2.702-0.157-4.347,1.416-4.314,4.09
		c0.018,1.399,0.029,2.801,0.123,4.196c0.332,4.922,0.295,9.83-0.537,14.704c-0.456,2.668-0.727,5.279,0.659,7.805
		c0.786,1.433,1.356,2.982,2.126,4.426c3.363,6.31,6.816,12.573,8.823,19.5c0.134,0.463,0.625,0.904,1.061,1.186
		c7.287,4.696,14.601,9.352,21.884,14.054c1.44,0.931,2.877,1.909,4.14,3.059c2.367,2.153,3.155,5.026,3.209,8.126
		C115.186,204.718,115.151,207.189,115.151,209.85z M126.196,111.87c0.084-0.402,0.124-0.632,0.182-0.857
		c0.884-3.46,1.452-6.954,1.337-10.547c-0.238-7.446-4.269-11.955-11.659-12.734c-6.802-0.717-14.812,2.573-17.745,10.313
		c-1.586,4.187-1.769,8.531-1.225,12.888c1.153,9.247,3.989,18.005,8.301,26.248c2.573,4.919,5.983,9.155,11.105,11.738
		c5.58,2.814,13.465,1.897,17.865-2.24c3.701-3.481,5.981-7.758,6.683-12.819c0.726-5.229-1.725-9.524-6.627-11.488
		c-1.464-0.586-3.032-0.913-4.537-1.353c0.819-2.322,1.753-4.658,2.467-7.058c1.465-4.928,2.437-9.939,1.858-15.124
		c-0.194-1.742-1.195-2.199-2.865-1.357c0.794,3.611,0.446,7.143-0.973,10.549C129.604,109.854,128.458,111.356,126.196,111.87z
		 M157.998,121.454c-0.936,0.174-1.719,0.302-2.494,0.467c-6.29,1.337-9.634,5.557-9.057,11.946
		c0.211,2.333,0.964,4.709,1.918,6.867c3.215,7.271,9.45,10.935,17.274,10.214c4.83-0.445,8.582-3.055,11.776-6.534
		c2.894-3.15,5.115-6.763,6.806-10.667c3.391-7.829,6.331-15.804,6.936-24.428c0.289-4.125-0.106-8.162-1.965-11.923
		c-2.964-6-10.123-9.707-17.106-8.926c-6.584,0.736-10.21,4.088-11.336,10.555c-0.605,3.476-0.241,6.931,0.409,10.365
		c0.18,0.947,0.377,1.891,0.588,2.949c-2.495-0.696-3.586-2.478-4.294-4.534c-1.13-3.278-1.326-6.631-0.489-9.996
		c-1.68-0.863-2.822-0.407-2.873,1.326c-0.085,2.904-0.125,5.834,0.168,8.718C154.733,112.523,156.171,116.981,157.998,121.454z"/>
	<path fill-rule="evenodd" clip-rule="evenodd" fill="#FFFFFF" d="M48.24,149.28c0.22,2.056,0.422,4.114,0.664,6.168
		c2.094,17.813,8.638,33.832,19.724,47.91c13.916,17.674,31.884,29.183,53.782,34.345c5.068,1.195,10.329,1.572,15.501,2.327
		c0.431,0.063,0.859,0.14,1.29,0.21c-30.3,0-60.6,0-90.96,0C48.24,209.92,48.24,179.6,48.24,149.28z"/>
	<path fill-rule="evenodd" clip-rule="evenodd" fill="#FFFFFF" d="M138.72,48.24c-1.98,0.221-3.961,0.43-5.939,0.666
		c-16.115,1.925-30.838,7.539-44.023,16.981c-18.397,13.174-30.74,30.688-36.985,52.457c-1.835,6.396-2.915,12.93-3.33,19.573
		c-0.022,0.351-0.133,0.695-0.203,1.043c0-30.22,0-60.44,0-90.72C78.4,48.24,108.56,48.24,138.72,48.24z"/>
	<path fill-rule="evenodd" clip-rule="evenodd" fill="#FFFFFF" d="M149.52,240.24c1.978-0.22,3.955-0.433,5.931-0.661
		c15.872-1.838,30.436-7.246,43.48-16.447c21.55-15.201,34.825-35.843,39.799-61.755c0.661-3.443,0.876-6.973,1.304-10.461
		c0.047-0.388,0.137-0.771,0.207-1.156c0,30.141,0,60.28,0,90.48C210,240.24,179.76,240.24,149.52,240.24z"/>
	<path fill-rule="evenodd" clip-rule="evenodd" fill="#FFFFFF" d="M240.24,138.48c-0.228-1.973-0.443-3.946-0.685-5.917
		c-1.902-15.597-7.277-29.896-16.237-42.797c-11.874-17.097-27.655-29.158-47.265-36.16c-8.055-2.875-16.372-4.553-24.905-5.15
		c-0.386-0.027-0.766-0.142-1.148-0.216c30.08,0,60.16,0,90.24,0C240.24,78.32,240.24,108.4,240.24,138.48z"/>
	<path fill-rule="evenodd" clip-rule="evenodd" fill="#FFFFFF" d="M207.518,121.103c2.82-0.132,4.443,1.461,4.357,4.299
		c-0.085,2.837-0.391,5.679-0.294,8.508c0.135,3.945,0.376,7.905,0.919,11.811c0.311,2.229,0.002,4.203-0.912,6.14
		c-1.312,2.78-2.592,5.587-4.104,8.259c-2.751,4.854-4.94,9.932-6.667,15.229c-0.221,0.677-0.813,1.364-1.421,1.761
		c-7.862,5.132-15.743,10.236-23.654,15.294c-3.71,2.371-5.398,5.742-5.368,10.074c0.017,2.395,0.003,4.79,0.003,7.358
		c-8.685,0.454-17.325,0.731-26.149,0.316c0-0.764,0.021-1.427-0.004-2.088c-0.141-3.707-0.152-7.427-0.472-11.119
		c-0.663-7.649,1.855-14.241,6.44-20.163c3.534-4.563,7.654-8.478,12.943-11.003c3.683-1.759,7.581-2.661,11.624-2.32
		c2.77,0.234,4.852-0.791,6.601-2.643c2.248-2.379,4.245-4.995,6.518-7.349c1.903-1.972,3.992-3.777,6.116-5.514
		c0.657-0.538,1.027-1.037,1.103-1.823c0.475-4.929,0.982-9.854,1.402-14.787c0.136-1.59,0.735-2.826,2.017-3.752
		c0.183-0.133,0.429-0.292,0.476-0.482c0.365-1.491,0.846-2.977,0.991-4.493c0.233-2.417,0.962-4.446,3.256-5.614
		c1.692-0.861,2.719-0.479,3.375,1.284C206.945,119.18,207.199,120.104,207.518,121.103z M169.045,208.782
		c0-2.4-0.012-4.437,0.003-6.473c0.033-4.807,2.014-8.507,6.117-11.12c7.783-4.959,15.526-9.982,23.259-15.021
		c0.544-0.354,1.062-0.984,1.262-1.594c1.719-5.216,3.927-10.195,6.59-15.006c1.756-3.171,3.212-6.516,4.667-9.842
		c0.372-0.851,0.429-1.955,0.292-2.894c-0.816-5.594-1.307-11.193-0.848-16.85c0.133-1.632,0.112-3.277,0.154-4.916
		c0.031-1.201-0.471-2.126-1.59-2.571c-1.053-0.419-1.743,0.305-2.353,1.012c-1.615,1.87-2.532,4.086-2.839,6.503
		c-0.342,2.692-0.462,5.413-0.749,8.113c-0.249,2.337-0.597,4.665-0.898,6.974c3.616,1.826,3.997,3.816,1.563,7.007
		c-2.302,3.018-4.479,6.129-6.704,9.204c-0.443,0.614-0.754,1.358-1.293,1.863c-4.862,4.554-8.738,9.856-12.058,15.601
		c-0.197,0.343-0.755,0.477-1.145,0.708c0.015-0.458-0.13-1.005,0.069-1.359c2.978-5.331,6.651-10.129,10.808-14.614
		c2.355-2.541,4.257-5.504,6.45-8.391c-1.911-0.409-3.374-1.063-4.447-2.429c-0.477-0.607-0.604-1.199-0.186-1.866
		c1.361-2.172,3.33-3.451,5.866-3.663c2.05-0.172,2.858,1.065,2.099,2.961c-0.073,0.182-0.14,0.366-0.325,0.853
		c1.772-2.19,1.133-4.145-1.262-4.481c-0.856-0.12-1.835,0.1-2.666,0.409c-4.603,1.714-8.053,4.908-11.108,8.654
		c-1.891,2.318-3.904,4.551-6.021,6.662c-1.794,1.791-3.906,2.761-6.67,2.524c-3.991-0.343-7.881,0.481-11.504,2.283
		c-6.123,3.045-10.693,7.781-14.342,13.447c-3.353,5.209-4.842,10.878-4.083,17.125c0.341,2.805,0.285,5.657,0.391,8.488
		c0.033,0.902,0.005,1.806,0.005,2.697C153.436,208.782,161.174,208.782,169.045,208.782z M199.914,145.056
		c0.125,0.058,0.25,0.116,0.374,0.174c0.199-0.326,0.536-0.636,0.576-0.979c0.444-3.802,0.908-7.604,1.232-11.417
		c0.295-3.469,0.802-6.886,3.11-9.623c0.995-1.181,1.062-2.177,0.535-3.436c-0.123-0.293-0.229-0.597-0.306-0.905
		c-0.275-1.117-0.887-1.119-1.764-0.621c-1.881,1.067-2.781,3.398-2.177,6.098c0.61,2.726,0.697,5.457,0.307,8.208
		c-0.326,2.29-0.698,4.572-1.045,6.859C200.473,141.293,200.195,143.175,199.914,145.056z M203.088,149.157
		c-0.075-1.273-0.778-1.546-1.638-1.621c-1.967-0.171-5.062,1.582-5.887,3.445c-0.185,0.417-0.146,1.266,0.133,1.493
		c0.962,0.785,2.059,1.415,3.149,2.021c0.188,0.104,0.711-0.096,0.887-0.312c0.924-1.142,1.819-2.311,2.655-3.519
		C202.738,150.159,202.917,149.535,203.088,149.157z M196.442,146.262c0.21,0.037,0.421,0.074,0.632,0.111
		c-0.08-5.82,1.735-11.404,1.698-17.239c-0.519,0.798-0.89,1.641-0.965,2.509c-0.247,2.862-0.337,5.737-0.586,8.599
		C197.046,142.255,196.708,144.255,196.442,146.262z M200.42,126.909c-0.026,0.353-0.08,0.706-0.076,1.058
		c0.033,2.882-0.19,5.725-0.937,8.532c-0.335,1.261-0.387,2.601-0.534,3.909c-0.143,1.259-0.242,2.522-0.361,3.784
		c0.097,0.009,0.192,0.018,0.289,0.026C199.212,138.434,201.057,132.809,200.42,126.909z"/>
	<path fill-rule="evenodd" clip-rule="evenodd" fill="#FFFFFF" d="M115.151,209.85c0-2.66,0.035-5.132-0.009-7.602
		c-0.055-3.1-0.842-5.973-3.209-8.126c-1.263-1.149-2.7-2.128-4.14-3.059c-7.283-4.702-14.597-9.357-21.884-14.054
		c-0.435-0.281-0.926-0.723-1.061-1.186c-2.006-6.927-5.459-13.19-8.823-19.5c-0.77-1.443-1.34-2.993-2.126-4.426
		c-1.385-2.525-1.114-5.137-0.659-7.805c0.832-4.875,0.868-9.782,0.537-14.704c-0.094-1.395-0.105-2.797-0.123-4.196
		c-0.033-2.674,1.612-4.247,4.314-4.09c0.331-1,0.623-2.032,1.011-3.027c0.58-1.49,1.471-1.854,2.944-1.217
		c2.351,1.017,3.295,2.931,3.561,5.389c0.177,1.636,0.627,3.245,0.993,4.857c0.042,0.188,0.305,0.345,0.494,0.477
		c1.344,0.94,1.921,2.243,2.064,3.861c0.438,4.97,0.933,9.936,1.45,14.898c0.048,0.454,0.304,1.062,0.659,1.282
		c3.604,2.239,6.198,5.475,8.888,8.655c1.795,2.123,3.85,4.035,5.877,5.947c1.004,0.948,2.258,1.309,3.736,1.214
		c5.399-0.346,10.485,0.767,15.133,3.628c4.777,2.941,8.6,6.872,11.786,11.444c2.761,3.962,4.65,8.292,5.131,13.138
		c0.157,1.583,0.123,3.193,0.074,4.788c-0.125,4.067-0.308,8.134-0.463,12.2c-0.017,0.436-0.002,0.872-0.002,1.496
		C132.58,210.599,123.935,210.262,115.151,209.85z M139.94,208.788c0-0.783-0.024-1.461,0.004-2.137
		c0.135-3.148,0.33-6.295,0.413-9.445c0.056-2.109,0.27-4.282-0.12-6.325c-2.05-10.754-8.592-18.243-17.818-23.578
		c-4.213-2.437-8.928-2.824-13.715-2.61c-0.709,0.031-1.506-0.18-2.141-0.511c-2.638-1.374-4.594-3.543-6.525-5.748
		c-2.313-2.641-4.59-5.329-7.089-7.788c-2.068-2.033-4.692-3.303-7.485-4.137c-1.286-0.383-3.001,0.188-3.562,1.113
		c-0.527,0.872-0.305,2.085,0.68,3.16c-0.087-0.297-0.118-0.435-0.168-0.563c-0.797-2.047,0.176-3.364,2.339-3.063
		c2.247,0.312,4.02,1.474,5.362,3.293c0.676,0.917,0.666,1.866-0.245,2.538c-1.191,0.878-2.504,1.592-3.803,2.4
		c0.772,1.104,1.688,2.406,2.598,3.713c0.797,1.145,1.509,2.357,2.395,3.429c2.797,3.382,5.743,6.646,8.461,10.089
		c1.377,1.744,2.414,3.763,3.543,5.693c0.166,0.283-0.006,0.765-0.022,1.154c-0.373-0.186-0.788-0.319-1.103-0.575
		c-0.231-0.188-0.331-0.537-0.491-0.814c-2.45-4.235-5.269-8.206-8.583-11.812c-1.135-1.234-2.466-2.311-3.469-3.64
		c-2.815-3.729-5.494-7.56-8.252-11.332c-1.582-2.164-0.902-4.803,1.547-5.846c0.214-0.092,0.424-0.192,0.574-0.261
		c-0.508-5.152-0.933-10.245-1.543-15.316c-0.305-2.535-1.344-4.852-3.162-6.725c-1.135-1.169-2.538-1.01-3.204,0.474
		c-0.354,0.789-0.425,1.779-0.372,2.663c0.423,6.959,0.487,13.895-0.761,20.798c-0.154,0.849,0.008,1.867,0.344,2.673
		c1.09,2.613,2.235,5.212,3.532,7.727c2.434,4.72,5.311,9.253,6.689,14.426c0.75,2.814,2.414,4.45,4.801,5.942
		c7.452,4.659,14.778,9.521,22.103,14.381c2.278,1.511,3.85,3.723,4.242,6.437c0.392,2.713,0.366,5.485,0.512,8.232
		c0.029,0.541,0.004,1.083,0.004,1.892C124.347,208.788,132.088,208.788,139.94,208.788z M85.179,145.206
		c0.14-0.06,0.28-0.119,0.419-0.178c-0.333-2.195-0.724-4.383-0.984-6.586c-0.416-3.519-0.844-7.041-1.062-10.574
		c-0.086-1.4,0.395-2.832,0.584-4.254c0.326-2.455-0.691-4.609-2.531-5.488c-0.701-0.335-1.211-0.323-1.452,0.545
		c-0.245,0.882-0.571,1.745-0.76,2.637c-0.067,0.32,0.058,0.797,0.274,1.043c2.411,2.733,3.332,5.998,3.641,9.545
		c0.354,4.051,0.831,8.092,1.295,12.133C84.651,144.438,84.98,144.814,85.179,145.206z M84.929,147.541
		c-2.333-0.093-3.093,0.988-2.087,2.666c0.856,1.429,1.952,2.715,2.964,4.047c0.122,0.159,0.382,0.286,0.586,0.299
		c1.077,0.063,3.366-1.477,3.705-2.531c0.095-0.294,0.046-0.733-0.115-0.997C88.746,148.997,86.893,147.888,84.929,147.541z
		 M88.685,146.328c0.129-0.012,0.259-0.024,0.388-0.037c-0.253-1.848-0.58-3.69-0.742-5.546c-0.277-3.18-0.413-6.372-0.698-9.552
		c-0.065-0.727-0.496-1.421-0.758-2.131c-0.176,0.054-0.352,0.108-0.527,0.163C87.126,134.926,87.906,140.627,88.685,146.328z
		 M86.531,143.553c0.149-0.013,0.299-0.025,0.449-0.039c-0.708-5.471-1.417-10.942-2.1-16.218c-0.02,0.163-0.146,0.56-0.104,0.937
		C85.347,133.341,85.942,138.447,86.531,143.553z"/>
	<path display="inline" fill-rule="evenodd" clip-rule="evenodd" fill="#808080" d="M126.196,111.87
		c2.261-0.514,3.408-2.016,4.169-3.841c1.419-3.406,1.767-6.938,0.973-10.549c1.67-0.842,2.671-0.385,2.865,1.357
		c0.579,5.184-0.394,10.196-1.858,15.124c-0.714,2.4-1.648,4.736-2.467,7.058c1.505,0.44,3.073,0.767,4.537,1.353
		c4.902,1.964,7.353,6.258,6.627,11.488c-0.702,5.061-2.982,9.338-6.683,12.819c-4.399,4.138-12.285,5.055-17.865,2.24
		c-5.123-2.583-8.532-6.818-11.105-11.738c-4.312-8.243-7.148-17.001-8.301-26.248c-0.543-4.357-0.361-8.701,1.225-12.888
		c2.933-7.74,10.943-11.03,17.745-10.313c7.39,0.779,11.421,5.288,11.659,12.734c0.115,3.593-0.454,7.087-1.337,10.547
		C126.32,111.238,126.281,111.468,126.196,111.87z M124.699,113.025c0.187-0.715,0.338-1.291,0.487-1.867
		c1.025-3.965,1.79-7.961,1.301-12.086c-0.476-4.011-2.142-7.28-5.962-9.078c-6.384-3.004-15.445-0.562-19.45,5.24
		c-2.904,4.207-3.397,8.99-3.031,13.897c0.661,8.846,3.471,17.126,7.095,25.125c2.106,4.652,4.936,8.869,9.131,11.996
		c2.818,2.102,5.968,3.265,9.474,3.198c6.292-0.118,10.913-3.116,13.751-8.657c1.076-2.101,1.972-4.422,2.33-6.739
		c0.922-5.985-2.133-10.084-8.13-11.413c-1.149-0.255-2.317-0.423-3.288-0.598c1.269-3.922,2.684-7.742,3.72-11.661
		c1.031-3.899,1.492-7.909,0.725-11.94c-0.116,0.547-0.043,1.096-0.026,1.646c0.104,3.451-0.363,6.788-2.184,9.801
		C129.345,112.036,127.46,113.182,124.699,113.025z"/>
	<path display="inline" fill-rule="evenodd" clip-rule="evenodd" fill="#808080" d="M157.998,121.454
		c-1.827-4.472-3.265-8.93-3.739-13.602c-0.293-2.884-0.253-5.814-0.168-8.718c0.051-1.733,1.193-2.189,2.873-1.326
		c-0.837,3.365-0.641,6.718,0.489,9.996c0.708,2.057,1.799,3.838,4.294,4.534c-0.211-1.058-0.408-2.002-0.588-2.949
		c-0.65-3.435-1.015-6.889-0.409-10.365c1.126-6.467,4.752-9.818,11.336-10.555c6.983-0.781,14.143,2.925,17.106,8.926
		c1.858,3.762,2.254,7.799,1.965,11.923c-0.604,8.625-3.545,16.6-6.936,24.428c-1.69,3.904-3.912,7.517-6.806,10.667
		c-3.194,3.479-6.946,6.089-11.776,6.534c-7.824,0.721-14.06-2.943-17.274-10.214c-0.954-2.158-1.707-4.534-1.918-6.867
		c-0.577-6.389,2.767-10.609,9.057-11.946C156.279,121.755,157.062,121.627,157.998,121.454z M159.555,122.315
		c-1.793,0.364-3.505,0.582-5.137,1.067c-4.979,1.483-7.516,5.485-6.921,10.619c0.436,3.762,2.029,6.999,4.171,10.065
		c4.381,6.272,13.828,7.43,19.812,3.81c3.112-1.883,5.542-4.439,7.617-7.36c4.157-5.85,6.476-12.537,8.607-19.291
		c1.621-5.134,2.61-10.376,2.37-15.804c-0.44-9.926-7.73-16.503-17.652-15.886c-5.628,0.35-9.396,3.495-10.422,9.002
		c-0.383,2.056-0.471,4.226-0.294,6.31c0.245,2.885,0.867,5.738,1.342,8.689c-1.629,0.021-3.141-0.404-4.385-1.629
		c-1.702-1.674-2.557-3.794-2.871-6.072c-0.323-2.342-0.352-4.724-0.51-7.088C154.268,107.008,156.371,114.719,159.555,122.315z"/>
	<path fill-rule="evenodd" clip-rule="evenodd" d="M169.045,208.782c-7.871,0-15.609,0-23.494,0c0-0.892,0.028-1.795-0.005-2.697
		c-0.105-2.831-0.05-5.684-0.391-8.488c-0.759-6.247,0.73-11.916,4.083-17.125c3.648-5.666,8.219-10.402,14.342-13.447
		c3.623-1.802,7.513-2.626,11.504-2.283c2.764,0.236,4.876-0.733,6.67-2.524c2.116-2.111,4.13-4.344,6.021-6.662
		c3.056-3.746,6.506-6.94,11.108-8.654c0.831-0.31,1.81-0.529,2.666-0.409c2.395,0.337,3.034,2.291,1.262,4.481
		c0.186-0.486,0.252-0.671,0.325-0.853c0.76-1.896-0.049-3.133-2.099-2.961c-2.536,0.212-4.505,1.491-5.866,3.663
		c-0.418,0.667-0.291,1.259,0.186,1.866c1.073,1.365,2.536,2.02,4.447,2.429c-2.193,2.887-4.095,5.85-6.45,8.391
		c-4.156,4.485-7.83,9.283-10.808,14.614c-0.199,0.354-0.055,0.901-0.069,1.359c0.39-0.231,0.947-0.365,1.145-0.708
		c3.319-5.744,7.195-11.047,12.058-15.601c0.539-0.505,0.85-1.249,1.293-1.863c2.225-3.075,4.402-6.187,6.704-9.204
		c2.434-3.19,2.053-5.181-1.563-7.007c0.302-2.309,0.649-4.636,0.898-6.974c0.287-2.701,0.407-5.421,0.749-8.113
		c0.307-2.417,1.224-4.633,2.839-6.503c0.609-0.707,1.3-1.431,2.353-1.012c1.119,0.445,1.621,1.371,1.59,2.571
		c-0.042,1.639-0.021,3.284-0.154,4.916c-0.459,5.657,0.031,11.256,0.848,16.85c0.137,0.938,0.08,2.043-0.292,2.894
		c-1.455,3.326-2.911,6.671-4.667,9.842c-2.663,4.811-4.871,9.79-6.59,15.006c-0.2,0.609-0.718,1.239-1.262,1.594
		c-7.732,5.038-15.476,10.062-23.259,15.021c-4.104,2.613-6.084,6.313-6.117,11.12C169.033,204.346,169.045,206.382,169.045,208.782
		z M170.107,167.426c-9.564,2.365-20.264,12.658-21.242,20.546C153.855,178.74,160.835,171.886,170.107,167.426z"/>
	<path fill-rule="evenodd" clip-rule="evenodd" d="M199.914,145.056c0.281-1.881,0.559-3.763,0.844-5.643
		c0.347-2.287,0.719-4.569,1.045-6.859c0.391-2.751,0.304-5.481-0.307-8.208c-0.604-2.7,0.296-5.031,2.177-6.098
		c0.877-0.498,1.488-0.497,1.764,0.621c0.076,0.308,0.183,0.612,0.306,0.905c0.526,1.259,0.46,2.255-0.535,3.436
		c-2.309,2.737-2.815,6.154-3.11,9.623c-0.324,3.813-0.788,7.615-1.232,11.417c-0.04,0.344-0.377,0.653-0.576,0.979
		C200.164,145.172,200.039,145.113,199.914,145.056z"/>
	<path fill-rule="evenodd" clip-rule="evenodd" d="M203.088,149.157c-0.171,0.378-0.35,1.002-0.7,1.508
		c-0.836,1.208-1.731,2.377-2.655,3.519c-0.176,0.217-0.698,0.417-0.887,0.312c-1.091-0.606-2.188-1.236-3.149-2.021
		c-0.279-0.228-0.317-1.076-0.133-1.493c0.825-1.863,3.92-3.616,5.887-3.445C202.31,147.611,203.013,147.884,203.088,149.157z"/>
	<path fill-rule="evenodd" clip-rule="evenodd" d="M196.442,146.262c0.266-2.007,0.604-4.006,0.779-6.02
		c0.249-2.862,0.339-5.737,0.586-8.599c0.075-0.868,0.446-1.711,0.965-2.509c0.037,5.835-1.778,11.419-1.698,17.239
		C196.863,146.336,196.652,146.299,196.442,146.262z"/>
	<path fill-rule="evenodd" clip-rule="evenodd" d="M200.42,126.909c0.637,5.9-1.208,11.525-1.619,17.309
		c-0.097-0.009-0.192-0.018-0.289-0.026c0.119-1.262,0.219-2.525,0.361-3.784c0.147-1.308,0.199-2.648,0.534-3.909
		c0.746-2.807,0.97-5.65,0.937-8.532C200.34,127.614,200.394,127.261,200.42,126.909z"/>
	<path fill-rule="evenodd" clip-rule="evenodd" d="M139.94,208.788c-7.852,0-15.594,0-23.485,0c0-0.809,0.024-1.351-0.004-1.892
		c-0.146-2.747-0.12-5.52-0.512-8.232c-0.392-2.714-1.964-4.926-4.242-6.437c-7.325-4.859-14.651-9.722-22.103-14.381
		c-2.388-1.492-4.051-3.128-4.801-5.942c-1.379-5.173-4.255-9.706-6.689-14.426c-1.297-2.515-2.442-5.113-3.532-7.727
		c-0.336-0.806-0.498-1.824-0.344-2.673c1.248-6.903,1.184-13.838,0.761-20.798c-0.054-0.884,0.018-1.875,0.372-2.663
		c0.666-1.484,2.069-1.644,3.204-0.474c1.818,1.873,2.857,4.189,3.162,6.725c0.61,5.071,1.035,10.164,1.543,15.316
		c-0.15,0.068-0.36,0.169-0.574,0.261c-2.45,1.043-3.129,3.682-1.547,5.846c2.758,3.772,5.437,7.604,8.252,11.332
		c1.003,1.329,2.334,2.405,3.469,3.64c3.313,3.606,6.132,7.577,8.583,11.812c0.16,0.277,0.26,0.627,0.491,0.814
		c0.315,0.256,0.73,0.39,1.103,0.575c0.016-0.39,0.188-0.871,0.022-1.154c-1.13-1.931-2.166-3.949-3.543-5.693
		c-2.718-3.443-5.664-6.707-8.461-10.089c-0.886-1.071-1.598-2.284-2.395-3.429c-0.91-1.307-1.825-2.609-2.598-3.713
		c1.299-0.809,2.612-1.522,3.803-2.4c0.911-0.672,0.921-1.621,0.245-2.538c-1.342-1.819-3.116-2.98-5.362-3.293
		c-2.164-0.301-3.137,1.017-2.339,3.063c0.05,0.129,0.081,0.267,0.168,0.563c-0.985-1.075-1.207-2.288-0.68-3.16
		c0.56-0.925,2.275-1.496,3.562-1.113c2.793,0.834,5.417,2.104,7.485,4.137c2.499,2.459,4.775,5.147,7.089,7.788
		c1.932,2.205,3.888,4.374,6.525,5.748c0.635,0.331,1.432,0.542,2.141,0.511c4.787-0.214,9.501,0.174,13.715,2.61
		c9.226,5.335,15.768,12.824,17.818,23.578c0.39,2.043,0.175,4.216,0.12,6.325c-0.083,3.15-0.278,6.297-0.413,9.445
		C139.916,207.327,139.94,208.005,139.94,208.788z M115.521,167.546c4.702,2.322,8.727,5.073,12.262,8.516
		c3.578,3.482,6.455,7.491,8.933,12.018C135.41,180.014,123.673,168.573,115.521,167.546z"/>
	<path fill-rule="evenodd" clip-rule="evenodd" d="M85.179,145.206c-0.198-0.392-0.528-0.768-0.575-1.177
		c-0.465-4.041-0.942-8.082-1.295-12.133c-0.31-3.547-1.23-6.812-3.641-9.545c-0.217-0.247-0.342-0.723-0.274-1.043
		c0.189-0.892,0.516-1.754,0.76-2.637c0.241-0.868,0.75-0.88,1.452-0.545c1.84,0.879,2.856,3.033,2.531,5.488
		c-0.189,1.422-0.67,2.854-0.584,4.254c0.218,3.533,0.646,7.056,1.062,10.574c0.261,2.203,0.652,4.391,0.984,6.586
		C85.458,145.087,85.318,145.146,85.179,145.206z"/>
	<path fill-rule="evenodd" clip-rule="evenodd" d="M84.929,147.541c1.964,0.347,3.817,1.456,5.054,3.483
		c0.161,0.264,0.21,0.703,0.115,0.997c-0.339,1.055-2.628,2.595-3.705,2.531c-0.204-0.013-0.465-0.14-0.586-0.299
		c-1.013-1.332-2.108-2.618-2.964-4.047C81.836,148.529,82.596,147.448,84.929,147.541z"/>
	<path fill-rule="evenodd" clip-rule="evenodd" d="M88.685,146.328c-0.779-5.701-1.559-11.402-2.338-17.104
		c0.176-0.054,0.352-0.108,0.527-0.163c0.263,0.71,0.693,1.404,0.758,2.131c0.285,3.18,0.421,6.372,0.698,9.552
		c0.162,1.856,0.489,3.698,0.742,5.546C88.944,146.304,88.814,146.316,88.685,146.328z"/>
	<path fill-rule="evenodd" clip-rule="evenodd" d="M86.531,143.553c-0.589-5.106-1.184-10.211-1.755-15.319
		c-0.042-0.377,0.084-0.774,0.104-0.937c0.683,5.275,1.392,10.747,2.1,16.218C86.83,143.527,86.68,143.54,86.531,143.553z"/>
	<path display="inline" fill-rule="evenodd" clip-rule="evenodd" d="M124.699,113.025c2.762,0.157,4.646-0.989,5.942-3.134
		c1.82-3.013,2.287-6.35,2.184-9.801c-0.017-0.55-0.089-1.099,0.026-1.646c0.767,4.031,0.307,8.041-0.725,11.94
		c-1.037,3.919-2.452,7.738-3.72,11.661c0.971,0.174,2.139,0.343,3.288,0.598c5.997,1.328,9.053,5.427,8.13,11.413
		c-0.357,2.316-1.253,4.638-2.33,6.739c-2.838,5.541-7.459,8.539-13.751,8.657c-3.506,0.066-6.656-1.097-9.474-3.198
		c-4.196-3.127-7.025-7.344-9.131-11.996c-3.624-8-6.434-16.28-7.095-25.125c-0.367-4.907,0.126-9.69,3.031-13.897
		c4.005-5.802,13.066-8.245,19.45-5.24c3.82,1.798,5.487,5.067,5.962,9.078c0.489,4.125-0.275,8.121-1.301,12.086
		C125.037,111.734,124.885,112.31,124.699,113.025z"/>
	<path display="inline" fill-rule="evenodd" clip-rule="evenodd" d="M159.555,122.315c-3.184-7.597-5.287-15.308-4.271-23.568
		c0.158,2.364,0.187,4.747,0.51,7.088c0.314,2.278,1.169,4.398,2.871,6.072c1.244,1.225,2.756,1.649,4.385,1.629
		c-0.475-2.952-1.097-5.805-1.342-8.689c-0.177-2.084-0.089-4.254,0.294-6.31c1.025-5.507,4.794-8.653,10.422-9.002
		c9.922-0.617,17.212,5.96,17.652,15.886c0.24,5.428-0.749,10.669-2.37,15.804c-2.132,6.754-4.45,13.44-8.607,19.291
		c-2.075,2.921-4.505,5.478-7.617,7.36c-5.984,3.62-15.432,2.463-19.812-3.81c-2.142-3.066-3.735-6.303-4.171-10.065
		c-0.595-5.133,1.942-9.136,6.921-10.619C156.05,122.897,157.762,122.679,159.555,122.315z"/>
	<path fill-rule="evenodd" clip-rule="evenodd" fill="#FFFFFF" d="M170.107,167.426c-9.272,4.46-16.252,11.314-21.242,20.546
		C149.844,180.084,160.543,169.791,170.107,167.426z"/>
	<path fill-rule="evenodd" clip-rule="evenodd" fill="#FFFFFF" d="M115.521,167.546c8.152,1.027,19.89,12.468,21.195,20.533
		c-2.479-4.526-5.355-8.535-8.933-12.018C124.248,172.619,120.223,169.868,115.521,167.546z"/>
	<path fill-rule="evenodd" clip-rule="evenodd" fill="#FFFFFF" d="M123.149,114.573c3.057,0.914,5.563,5.547,3.411,8.723
		c3.804,0.194,7.359,0.991,10.154,3.818c-3.672-2.134-7.606-3.174-12.077-2.818c1.376-1.79,2.384-3.497,1.433-5.622
		c-0.893-1.995-2.643-2.902-4.521-3.506c0.642-1.52,1.357-2.981,1.878-4.51c0.522-1.536,0.851-3.138,1.265-4.711
		c0.12,0.027,0.24,0.054,0.359,0.081C124.426,108.836,123.801,111.645,123.149,114.573z"/>
	<path fill-rule="evenodd" clip-rule="evenodd" fill="#FFFFFF" d="M127.739,146.854c-3.251,1.419-6.454,1.2-9.577-0.304
		c-4.066-1.958-6.87-5.252-9.28-8.935c-0.686-1.047-1.28-2.155-1.705-3.36c0.998,1.455,1.949,2.944,3.002,4.357
		c1.968,2.642,4.229,4.994,7.098,6.683c3.043,1.791,6.279,2.477,9.769,1.632C127.271,146.872,127.508,146.876,127.739,146.854z"/>
	<path fill-rule="evenodd" clip-rule="evenodd" fill="#FFFFFF" d="M114.803,90.674c-5.746,1.176-10.174,4.255-13.454,9.245
		C102.938,94.791,108.784,90.667,114.803,90.674z"/>
	<path fill-rule="evenodd" clip-rule="evenodd" fill="#FFFFFF" d="M165.164,115.089c-1.587-2.861-1.718-5.852-1.916-8.595
		c0.897,2.924,1.86,6.06,2.853,9.292c-1.609,0.532-3.469,1.335-4.405,3.367c-0.979,2.123-0.012,3.845,1.295,5.608
		c-4.333-0.433-8.227,0.468-12.121,2.64c1.83-2.223,5.025-3.315,10.29-3.665c-1.215-1.725-0.982-3.461-0.127-5.187
		C161.883,116.835,163.083,115.508,165.164,115.089z"/>
	<path fill-rule="evenodd" clip-rule="evenodd" fill="#FFFFFF" d="M188.088,110.356c-0.493-2.811-0.763-5.446-1.441-7.972
		c-1.227-4.57-3.616-8.348-8.181-10.328c-0.65-0.283-1.338-0.481-2.05-0.733c1.628-0.244,4.532,0.891,6.375,2.449
		c2.286,1.933,3.587,4.464,4.364,7.289C187.979,104.049,188.159,107.109,188.088,110.356z"/>
	<path fill-rule="evenodd" clip-rule="evenodd" fill="#FFFFFF" d="M152.268,141.722c4.966,5.224,10.895,6.586,17.837,4.404
		C165.187,149.383,155.551,147.236,152.268,141.722z"/>
</g>
<g>
	<g>
		<path fill-rule="evenodd" clip-rule="evenodd" fill="#808080" d="M166.17,148.201c-2.945-0.911-5.264,0.056-7.354,1.65
			c-3.897,2.978-6.647,6.812-8.133,11.5c-2.481-0.143-3.331-1.332-2.396-3.467c2.779-6.354,7.232-11.478,12.194-16.177
			c2.418-2.289,5.044-4.357,7.532-6.486c-1.441-1.507-3.031-2.925-4.325-4.573c-4.338-5.52-4.306-12.094,0.007-17.632
			c4.171-5.359,9.641-8.768,16.215-10.315c7.816-1.84,17.504,2.346,22.057,9.295c4.182,6.378,5.292,13.522,4.985,20.895
			c-0.516,12.356-3.072,24.326-7.892,35.739c-2.269,5.378-5.367,10.259-9.976,14.025c-8.522,6.96-19.932,5.423-27.285,0.077
			c-7.991-5.809-9.636-13.68-4.96-22.412c2.257-4.213,5.233-7.857,8.55-11.253C165.605,148.847,165.803,148.609,166.17,148.201z
			 M168.661,147.867c-0.69,0.699-1.247,1.262-1.803,1.825c-3.814,3.884-7.352,7.977-9.529,13.051
			c-2.119,4.933-2.373,9.807,0.83,14.416c5.353,7.701,17.409,10.912,25.878,6.896c6.139-2.913,9.886-8.093,12.728-13.987
			c5.116-10.624,7.386-22.025,8.53-33.644c0.668-6.755,0.214-13.491-2.539-19.881c-1.848-4.294-4.7-7.726-8.78-9.979
			c-7.323-4.046-14.637-3.667-21.587,0.827c-2.637,1.702-5.212,3.779-7.164,6.208c-5.039,6.278-4.245,13.029,1.775,18.545
			c1.153,1.058,2.388,2.028,3.39,2.874c-4.069,3.672-8.235,7.13-12.035,10.953c-3.779,3.802-6.975,8.113-8.771,13.265
			c0.498-0.553,0.778-1.234,1.124-1.879c2.177-4.041,4.932-7.573,9.029-9.831C162.655,145.918,165.586,145.852,168.661,147.867z"/>
		<path fill-rule="evenodd" clip-rule="evenodd" d="M168.661,147.867c-3.075-2.016-6.006-1.949-8.925-0.341
			c-4.098,2.258-6.853,5.79-9.029,9.831c-0.346,0.645-0.626,1.326-1.124,1.879c1.797-5.151,4.992-9.463,8.771-13.265
			c3.8-3.823,7.966-7.281,12.035-10.953c-1.002-0.845-2.236-1.816-3.39-2.874c-6.021-5.516-6.814-12.267-1.775-18.545
			c1.952-2.429,4.527-4.506,7.164-6.208c6.95-4.494,14.264-4.873,21.587-0.827c4.08,2.254,6.933,5.686,8.78,9.979
			c2.753,6.39,3.207,13.125,2.539,19.881c-1.145,11.618-3.414,23.02-8.53,33.644c-2.842,5.895-6.589,11.074-12.728,13.987
			c-8.469,4.016-20.525,0.805-25.878-6.896c-3.203-4.609-2.949-9.483-0.83-14.416c2.178-5.074,5.715-9.167,9.529-13.051
			C167.414,149.129,167.971,148.566,168.661,147.867z"/>
	</g>
	<g>
		<path fill-rule="evenodd" clip-rule="evenodd" fill="#808080" d="M119.741,134.016c5.077,3.934,9.695,8.112,13.345,13.172
			c2.255,3.126,4.157,6.527,5.99,9.926c1.093,2.028,0.081,3.313-2.425,3.438c-1.276-4.432-3.729-8.162-7.208-11.183
			c-2.184-1.897-4.624-3.225-7.959-2.366c0.946,1.076,1.801,2.033,2.638,3.004c3.031,3.521,5.747,7.257,7.361,11.663
			c3.001,8.191,1.053,14.464-6.037,19.688c-7.52,5.54-18.228,6.031-25.629,1.094c-4.639-3.096-7.778-7.481-10.187-12.424
			c-5.036-10.33-6.952-21.468-8.254-32.733c-0.648-5.619-0.492-11.255,0.745-16.806c1.367-6.129,3.95-11.627,9.216-15.351
			c8.529-6.031,18.144-5.958,26.678,0.277c2.534,1.85,4.98,4.085,6.774,6.63c4.912,6.974,3.868,14.056-2.487,19.776
			C121.518,132.524,120.702,133.194,119.741,134.016z M117.375,134.057c1.823-1.611,3.648-2.998,5.204-4.644
			c4.748-5.016,5.008-11.311,0.91-16.826c-3.002-4.041-6.989-6.708-11.492-8.815c-9.214-4.31-20.86,0.638-25.344,8.784
			c-2.332,4.236-3.431,8.795-3.878,13.537c-0.898,9.499,0.878,18.739,2.914,27.931c1.546,6.989,3.893,13.683,7.777,19.771
			c7.104,11.136,19.87,13.861,30.885,6.558c6.247-4.145,8.494-10.271,6.015-17.295c-0.926-2.62-2.268-5.178-3.857-7.46
			c-2.2-3.158-4.812-6.029-7.32-9.111c1.861-1.107,3.885-1.623,6.13-1.04c3.074,0.797,5.466,2.67,7.341,5.083
			c1.929,2.481,3.546,5.206,5.3,7.821C133.637,148.168,126.09,140.687,117.375,134.057z"/>
		<path fill-rule="evenodd" clip-rule="evenodd" d="M117.375,134.057c8.715,6.63,16.262,14.111,20.584,24.294
			c-1.754-2.615-3.371-5.34-5.3-7.821c-1.875-2.413-4.268-4.286-7.341-5.083c-2.246-0.583-4.269-0.067-6.13,1.04
			c2.508,3.082,5.121,5.953,7.32,9.111c1.589,2.282,2.932,4.84,3.857,7.46c2.479,7.023,0.231,13.15-6.015,17.295
			c-11.015,7.304-23.781,4.578-30.885-6.558c-3.884-6.089-6.23-12.782-7.777-19.771c-2.036-9.192-3.812-18.433-2.914-27.931
			c0.448-4.742,1.546-9.301,3.878-13.537c4.483-8.146,16.129-13.094,25.344-8.784c4.502,2.107,8.49,4.774,11.492,8.815
			c4.098,5.516,3.837,11.811-0.91,16.826C121.023,131.059,119.198,132.446,117.375,134.057z"/>
	</g>
</g>
<g>
	<g>
		<g>
			<polygon fill-rule="evenodd" clip-rule="evenodd" fill="#9D9FA2" points="148.854,47.701 148.854,9.901 139.148,9.901 
				139.148,47.701 127.746,47.701 144,72.911 160.254,47.701 			"/>
		</g>
	</g>
	<g>
		<g>
			<polygon fill-rule="evenodd" clip-rule="evenodd" fill="#9D9FA2" points="100.053,58.176 81.152,25.441 72.749,30.293 
				91.647,63.028 98.983,58.793 81.774,68.729 108.456,82.435 109.927,52.475 			"/>
		</g>
	</g>
	<g>
		<g>
			<g>
				
					<rect x="25.334" y="81.549" transform="matrix(0.866 0.5 -0.5 0.866 49.1263 -10.5417)" fill-rule="evenodd" clip-rule="evenodd" fill="#9D9FA2" width="37.8" height="9.704"/>
				<polygon fill-rule="evenodd" clip-rule="evenodd" fill="#9D9FA2" points="68.729,81.774 52.475,109.927 82.436,108.456 				"/>
			</g>
		</g>
	</g>
	<g>
		<g>
			<polygon fill-rule="evenodd" clip-rule="evenodd" fill="#9D9FA2" points="72.911,144 47.7,127.746 47.7,139.147 9.9,139.148 
				9.901,148.852 47.7,148.852 47.7,160.254 			"/>
		</g>
	</g>
	<g>
		<g>
			<polygon fill-rule="evenodd" clip-rule="evenodd" fill="#9D9FA2" points="82.436,179.543 52.474,178.074 58.175,187.948 
				25.44,206.848 30.293,215.252 63.027,196.352 68.729,206.227 			"/>
		</g>
	</g>
	<g>
		<g>
			<polygon fill-rule="evenodd" clip-rule="evenodd" fill="#9D9FA2" points="109.926,235.525 108.456,205.564 81.773,219.271 
				91.646,224.972 72.749,257.709 81.153,262.561 100.052,229.824 			"/>
		</g>
	</g>
	<g>
		<g>
			<polygon fill-rule="evenodd" clip-rule="evenodd" fill="#9D9FA2" points="160.254,240.301 144,215.088 127.745,240.301 
				139.147,240.301 139.149,278.1 148.854,278.098 148.852,240.301 			"/>
		</g>
	</g>
	<g>
		<g>
			<polygon fill-rule="evenodd" clip-rule="evenodd" fill="#9D9FA2" points="215.252,257.707 196.351,224.973 206.227,219.271 
				179.545,205.564 178.072,235.525 187.947,229.824 206.848,262.561 			"/>
		</g>
	</g>
	<g>
		<g>
			<polygon fill-rule="evenodd" clip-rule="evenodd" fill="#9D9FA2" points="229.822,187.949 235.523,178.074 205.564,179.543 
				219.27,206.229 227.396,192.151 224.971,196.354 257.709,215.252 262.559,206.846 			"/>
		</g>
	</g>
	<g>
		<g>
			<g>
				<rect x="240.3" y="139.148" fill-rule="evenodd" clip-rule="evenodd" fill="#9D9FA2" width="37.799" height="9.704"/>
				<polygon fill-rule="evenodd" clip-rule="evenodd" fill="#9D9FA2" points="215.09,144 240.299,160.256 240.299,139.149 
					240.299,127.747 				"/>
			</g>
		</g>
	</g>
	<g>
		<g>
			<polygon fill-rule="evenodd" clip-rule="evenodd" fill="#9D9FA2" points="229.826,100.055 262.559,81.151 257.705,72.749 
				224.973,91.65 219.271,81.775 205.564,108.455 235.525,109.928 225.986,93.406 			"/>
		</g>
	</g>
	<g>
		<g>
			<polygon fill-rule="evenodd" clip-rule="evenodd" fill="#9D9FA2" points="196.354,63.029 215.25,30.292 206.846,25.442 
				187.949,58.178 178.074,52.476 179.545,82.435 206.227,68.73 188.986,58.777 			"/>
		</g>
	</g>
</g>
<g>
	<g>
		<g>
			<path fill-rule="evenodd" clip-rule="evenodd" d="M22.374,95.951c-2.288,6.232-5.535,9.889-10.028,11.701
				c-2.118,0.854-3.44,1.822-4.569,3.575c1.909,0.458,3.778,0.907,5.844,1.403c-0.348-1.081-0.641-2.02-0.938-3.02
				c0.889-0.508,1.768-0.996,2.703-1.499c1.212,3.125,1.511,6.564,0.983,10.415c-0.939,6.849-3.716,12.069-8.153,14.607
				c-1.49,0.853-2.782,2.175-3.866,4.341c2.066,0.097,3.982,0.185,6.104,0.285c-0.547-1.025-0.989-1.877-1.459-2.811
				c0.767-0.65,1.545-1.293,2.417-1.994c1.864,3.155,2.706,6.781,2.738,11.164c-0.874,0.001-1.684,0.001-2.495,0.002
				c0.022-0.104,0.044-0.208,0.068-0.312c-0.318-0.211-0.632-0.6-0.951-0.61c-2.381-0.065-4.763-0.075-7.144-0.05
				c-0.263,0.003-0.526,0.346-0.789,0.531c0.018,0.153,0.038,0.303,0.055,0.454c-0.811,0.001-1.623,0.001-2.65,0.002
				c0.172-1.676,0.269-3.338,0.597-4.882c1.067-5.008,3.458-8.066,6.464-9.952c1.183-0.741,2.274-1.957,3.407-2.956
				c0.226-0.199,0.39-0.575,0.677-1.003c-2.021-0.284-3.899-0.547-5.985-0.84c0.453,1.121,0.833,2.024,1.24,2.966
				c-0.822,0.639-1.627,1.279-2.479,1.975c-1.674-3.07-2.307-6.888-1.734-11.204c1.012-7.625,4.788-12.912,9.68-14.485
				c1.724-0.555,3.352-1.691,4.472-3.138c-1.835-0.624-3.638-1.237-5.641-1.918c0.24,1.131,0.455,2.083,0.698,3.118
				c-0.884,0.46-1.781,0.939-2.786,1.492c-1.198-3.692-1.042-7.932,0.597-12.452c0.821,0.324,1.64,0.647,2.461,0.971
				c-0.102,0.322-0.203,0.644-0.329,1.053c2.567,0.989,5.079,1.95,7.588,2.933c0.523,0.205,0.567-0.411,0.743-0.83
				C20.734,95.305,21.554,95.628,22.374,95.951z M13.823,116.52c0.164-2.078,0.18-2.079-0.972-2.341
				c-1.735-0.394-3.47-0.789-5.204-1.181c-1.082-0.245-1.257-0.074-1.664,1.87C8.578,115.414,11.167,115.96,13.823,116.52z
				 M11.288,141.517c-0.187-2.076-0.173-2.078-1.35-2.118c-1.771-0.061-3.544-0.122-5.318-0.183
				c-1.109-0.038-1.25,0.165-1.322,2.153C5.941,141.418,8.582,141.466,11.288,141.517z M5.048,118.595
				c2.838,0.518,5.59,1.021,8.345,1.523c0.111-0.679,0.212-1.267,0.316-1.857c-2.806-0.553-5.552-1.094-8.326-1.641
				C5.262,117.303,5.161,117.899,5.048,118.595z M18.756,97.479c-2.516-0.933-5.026-1.863-7.543-2.796
				c-0.509,2.058-0.488,2.078,0.642,2.477c1.657,0.586,3.312,1.172,4.967,1.758C17.951,99.318,17.954,99.298,18.756,97.479z
				 M12.846,121.937c-2.625-0.441-5.25-0.883-7.862-1.322c-0.204,1.611,0.142,2.209,1.095,2.276c1.74,0.122,3.459,0.487,5.185,0.751
				C12.412,123.818,12.485,123.725,12.846,121.937z"/>
			<path fill-rule="evenodd" clip-rule="evenodd" d="M46.825,54.383c-4.503,4.965-8.872,7.186-13.754,7.229
				c-2.3,0.018-3.89,0.435-5.573,1.659c1.633,1.129,3.232,2.236,4.999,3.458c0.055-1.137,0.113-2.123,0.191-3.168
				c1.016-0.146,2.017-0.277,3.079-0.405c0.021,3.363-0.922,6.687-2.765,10.097c-3.276,6.062-7.648,9.933-12.667,10.682
				c-1.687,0.254-3.345,1.021-5.089,2.656c1.905,0.848,3.671,1.634,5.627,2.505c-0.169-1.163-0.294-2.123-0.42-3.172
				c0.937-0.325,1.886-0.644,2.942-0.983c0.681,3.64,0.25,7.349-1.178,11.469c-0.82-0.32-1.581-0.615-2.341-0.912
				c0.055-0.09,0.111-0.181,0.168-0.27c-0.229-0.313-0.392-0.793-0.689-0.916c-2.209-0.938-4.44-1.819-6.681-2.669
				c-0.25-0.089-0.607,0.131-0.916,0.209c-0.034,0.15-0.067,0.299-0.1,0.445c-0.761-0.296-1.523-0.594-2.486-0.97
				c0.719-1.507,1.365-3.033,2.189-4.357c2.678-4.306,5.96-6.295,9.42-6.953c1.363-0.261,2.799-0.999,4.206-1.521
				c0.279-0.103,0.564-0.398,0.979-0.693c-1.799-1.007-3.471-1.942-5.328-2.981c0.041,1.215,0.09,2.198,0.149,3.23
				c-0.99,0.298-1.962,0.603-2.999,0.943c-0.527-3.486,0.185-7.298,2.224-11.126c3.602-6.764,9.059-10.315,14.242-9.988
				c1.825,0.117,3.774-0.343,5.362-1.281c-1.504-1.257-2.982-2.491-4.624-3.862c-0.187,1.142-0.333,2.108-0.479,3.163
				c-1,0.103-2.021,0.221-3.169,0.369c0.206-3.886,1.9-7.784,5.149-11.393c0.656,0.604,1.311,1.208,1.967,1.811
				c-0.218,0.263-0.436,0.526-0.709,0.861c2.061,1.866,4.083,3.687,6.092,5.525c0.419,0.383,0.688-0.176,1.013-0.503
				C45.512,53.176,46.17,53.78,46.825,54.383z M31.315,70.441c0.884-1.885,0.9-1.878-0.09-2.545
				c-1.492-1.005-2.984-2.012-4.477-3.016c-0.932-0.627-1.157-0.531-2.221,1.139C26.773,67.482,29.016,68.943,31.315,70.441z
				 M20.399,92.925c0.517-2.013,0.532-2.011-0.557-2.483c-1.641-0.707-3.285-1.416-4.926-2.12c-1.026-0.44-1.227-0.304-1.958,1.535
				C15.419,90.871,17.878,91.885,20.399,92.925z M22.345,69.164c2.485,1.526,4.895,3.006,7.308,4.487
				c0.34-0.595,0.641-1.111,0.944-1.624c-2.442-1.547-4.833-3.06-7.248-4.589C22.997,68.033,22.693,68.555,22.345,69.164z
				 M42.827,54.476c-2.033-1.795-4.062-3.585-6.096-5.381c-1.244,1.728-1.229,1.758-0.31,2.546c1.349,1.155,2.696,2.309,4.044,3.464
				C41.386,55.893,41.396,55.873,42.827,54.476z M28.511,75.147c-2.312-1.376-4.625-2.752-6.925-4.121
				c-0.751,1.437-0.634,2.126,0.24,2.537c1.595,0.75,3.079,1.725,4.607,2.605C27.451,76.755,27.551,76.692,28.511,75.147z"/>
			<path fill-rule="evenodd" clip-rule="evenodd" d="M87.387,25.053c-6.705,2.871-11.915,3.294-16.698,1.517
				c-2.252-0.84-3.979-1.046-6.124-0.54c1.114,1.65,2.205,3.267,3.411,5.053c0.527-1.031,1.002-1.921,1.517-2.857
				c1.05,0.244,2.081,0.495,3.17,0.773c-1.407,3.111-3.716,5.829-6.889,8.302c-5.642,4.396-11.321,6.386-16.393,5.232
				c-1.704-0.388-3.584-0.281-5.863,0.597c1.488,1.49,2.867,2.871,4.395,4.401c0.284-1.145,0.532-2.086,0.813-3.105
				c1.017,0.042,2.041,0.096,3.179,0.17c-0.76,3.633-2.587,6.924-5.477,10.24c-0.657-0.599-1.267-1.154-1.876-1.709
				c0.088-0.066,0.17-0.127,0.258-0.19c-0.1-0.376-0.075-0.883-0.309-1.109c-1.744-1.684-3.526-3.323-5.332-4.938
				c-0.201-0.177-0.625-0.102-0.945-0.144c-0.088,0.127-0.177,0.254-0.263,0.379c-0.61-0.556-1.22-1.112-1.992-1.815
				c1.243-1.14,2.429-2.323,3.711-3.252c4.174-3.023,8.086-3.664,11.652-3.001c1.403,0.261,3.068,0.106,4.621,0.142
				c0.308,0.008,0.698-0.16,1.214-0.28c-1.325-1.599-2.554-3.084-3.921-4.734c-0.443,1.141-0.788,2.073-1.138,3.054
				c-1.065-0.089-2.115-0.165-3.238-0.231c0.86-3.432,3.047-6.707,6.565-9.498c6.213-4.931,13.063-6.173,18.005-3.939
				c1.736,0.791,3.851,1.092,5.826,0.823c-0.934-1.72-1.852-3.409-2.871-5.286c-0.687,0.982-1.25,1.819-1.847,2.734
				c-1.027-0.278-2.082-0.549-3.272-0.84c1.871-3.507,5.23-6.467,10.078-8.563c0.383,0.801,0.767,1.602,1.149,2.403
				c-0.335,0.16-0.667,0.32-1.089,0.526c1.216,2.488,2.413,4.926,3.59,7.365c0.246,0.508,0.762,0.098,1.231-0.081
				C86.621,23.452,87.004,24.253,87.387,25.053z M65.298,34.075c1.627-1.414,1.643-1.403,0.961-2.387
				c-1.026-1.482-2.058-2.97-3.088-4.449c-0.643-0.923-0.906-0.922-2.621,0.228C62.121,29.652,63.69,31.836,65.298,34.075z
				 M46.012,50.92c1.248-1.685,1.265-1.678,0.408-2.516c-1.291-1.261-2.582-2.522-3.874-3.785c-0.808-0.79-1.05-0.736-2.436,0.708
				C42.062,47.177,44.013,49.025,46.012,50.92z M57.16,29.569c1.776,2.333,3.497,4.595,5.221,6.86
				c0.568-0.424,1.068-0.79,1.571-1.153c-1.726-2.336-3.414-4.623-5.12-6.933C58.25,28.763,57.743,29.134,57.16,29.569z
				 M83.376,23.638c-1.22-2.413-2.437-4.819-3.658-7.233c-1.997,1.122-1.994,1.155-1.431,2.225c0.825,1.568,1.65,3.136,2.475,4.704
				C81.325,24.403,81.337,24.387,83.376,23.638z M60.675,37.394c-1.669-2.13-3.339-4.259-5-6.377
				c-1.3,1.052-1.459,1.734-0.787,2.438c1.227,1.284,2.266,2.736,3.382,4.118C59.012,38.492,59.128,38.47,60.675,37.394z"/>
			<path fill-rule="evenodd" clip-rule="evenodd" d="M144.245,13.899c-8.902-0.053-14.68-1.696-18.872-5.17
				c-1.978-1.638-3.712-2.495-6.227-2.865c0.351,1.932,0.695,3.824,1.075,5.915c1.07-0.733,2.02-1.357,3.038-2.008
				c0.995,0.629,1.963,1.256,2.986,1.933c-3.082,2.279-6.89,3.854-11.418,4.887c-8.048,1.833-14.742,1.495-19.343-1.484
				c-1.545-1-3.492-1.619-6.186-1.675c0.812,1.928,1.563,3.715,2.396,5.695c0.808-0.942,1.49-1.708,2.25-2.537
				c1.007,0.424,2.018,0.861,3.135,1.361c-2.466,3.038-5.818,5.361-10.179,7.321c-0.385-0.798-0.742-1.538-1.1-2.277
				c0.112-0.025,0.228-0.051,0.341-0.075c0.072-0.384,0.32-0.839,0.191-1.136c-0.983-2.202-2.021-4.38-3.093-6.543
				c-0.119-0.239-0.577-0.328-0.876-0.487c-0.145,0.084-0.287,0.167-0.43,0.249c-0.357-0.74-0.715-1.481-1.168-2.418
				c1.747-0.58,3.462-1.218,5.176-1.588c5.554-1.198,9.833-0.295,13.156,1.668c1.303,0.774,3.081,1.266,4.656,1.891
				c0.309,0.126,0.793,0.121,1.379,0.208c-0.595-1.966-1.148-3.793-1.763-5.823c-1.003,0.873-1.799,1.594-2.624,2.357
				c-1.043-0.488-2.078-0.956-3.19-1.444c2.496-2.813,6.293-4.971,11.305-6.165c8.86-2.109,16.815-0.569,20.978,3.388
				c1.467,1.394,3.587,2.494,5.869,3.025c-0.123-1.925-0.243-3.816-0.377-5.917c-1.248,0.621-2.291,1.159-3.408,1.756
				c-0.969-0.654-1.959-1.312-3.086-2.04c3.801-2.453,8.96-3.82,15.407-3.8c0,0.876,0,1.753,0,2.629
				c-0.45,0.012-0.902,0.025-1.474,0.045c0.028,2.732,0.062,5.412,0.076,8.083c0.003,0.557,0.788,0.388,1.397,0.413
				C144.245,12.148,144.245,13.024,144.245,13.899z M115.917,13.467c2.404-0.661,2.424-0.642,2.195-1.801
				c-0.345-1.748-0.688-3.496-1.034-5.241c-0.216-1.089-0.5-1.188-2.862-0.802C114.779,8.218,115.341,10.809,115.917,13.467z
				 M88.249,21.52c2.008-1.076,2.025-1.062,1.548-2.154c-0.718-1.645-1.436-3.292-2.156-4.937c-0.45-1.029-0.718-1.073-2.757-0.269
				C85.998,16.594,87.109,19.027,88.249,21.52z M109.645,6.232c0.706,2.809,1.389,5.533,2.074,8.26
				c0.799-0.169,1.499-0.311,2.204-0.448c-0.652-2.793-1.289-5.526-1.934-8.288C111.173,5.915,110.464,6.059,109.645,6.232z
				 M140.583,11.037c-0.073-2.666-0.146-5.326-0.219-7.993c-2.778,0.229-2.777,0.264-2.723,1.452
				c0.081,1.744,0.164,3.491,0.248,5.233C137.947,10.919,137.958,10.912,140.583,11.037z M109.482,14.717
				c-0.694-2.583-1.389-5.167-2.08-7.735c-1.857,0.462-2.345,1.023-1.99,1.924c0.646,1.644,1.018,3.364,1.502,5.052
				C107.236,15.081,107.364,15.104,109.482,14.717z"/>
			<path fill-rule="evenodd" clip-rule="evenodd" d="M86.894,262.73c6.631,2.991,10.667,6.614,12.608,11.316
				c0.911,2.216,1.984,3.638,3.989,4.92c0.57-1.888,1.128-3.736,1.745-5.78c-1.257,0.263-2.348,0.476-3.498,0.69
				c-0.555-0.94-1.086-1.869-1.632-2.859c3.574-0.946,7.527-0.955,12.068-0.148c8.069,1.435,14.59,4.438,17.779,8.967
				c1.075,1.521,2.752,2.856,5.551,3.986c0.129-2.065,0.248-3.979,0.38-6.101c-1.328,0.526-2.425,0.945-3.619,1.389
				c-0.822-0.786-1.634-1.585-2.521-2.483c3.994-1.757,8.649-2.503,14.494-2.531c0,0.874,0,1.685,0,2.495
				c-0.144-0.022-0.281-0.044-0.422-0.067c-0.281,0.318-0.792,0.628-0.805,0.947c-0.09,2.382-0.107,4.763-0.075,7.144
				c0.004,0.263,0.456,0.526,0.699,0.789c0.204-0.018,0.405-0.033,0.611-0.051c0,0.811,0,1.622,0,2.647
				c-2.236-0.174-4.431-0.286-6.443-0.639c-6.532-1.145-10.335-3.671-12.655-6.766c-0.915-1.218-2.417-2.368-3.631-3.557
				c-0.242-0.237-0.701-0.421-1.222-0.732c-0.364,2.014-0.702,3.884-1.078,5.961c1.373-0.394,2.48-0.73,3.648-1.093
				c0.785,0.855,1.573,1.691,2.439,2.575c-3.834,1.546-8.539,1.984-13.675,1.119c-9.074-1.527-14.917-5.842-16.534-10.942
				c-0.567-1.797-1.785-3.554-3.339-4.833c-0.755,1.799-1.496,3.563-2.32,5.526c1.253-0.132,2.317-0.254,3.477-0.4
				c0.485,0.94,0.993,1.894,1.586,2.963c-4.183,0.865-8.875,0.287-13.686-1.862c0.386-0.799,0.771-1.598,1.158-2.396
				c0.34,0.137,0.685,0.274,1.124,0.446c1.183-2.502,2.332-4.958,3.507-7.403c0.245-0.51-0.424-0.615-0.867-0.838
				C86.12,264.33,86.508,263.529,86.894,262.73z M109.765,273.283c-2.435-0.32-2.424-0.337-2.75,0.803
				c-0.492,1.718-0.984,3.438-1.476,5.154c-0.307,1.072-0.118,1.261,2.153,1.814C108.377,278.485,109.062,275.917,109.765,273.283z
				 M140.786,276.946c-2.729,0.168-2.72,0.145-2.774,1.321c-0.084,1.771-0.165,3.546-0.246,5.318
				c-0.051,1.108,0.198,1.256,2.812,1.347C140.647,282.292,140.716,279.653,140.786,276.946z M112.094,282.265
				c0.656-2.818,1.291-5.551,1.927-8.288c-0.81-0.157-1.509-0.302-2.203-0.448c-0.697,2.784-1.379,5.511-2.069,8.263
				C110.555,281.961,111.264,282.104,112.094,282.265z M88.396,266.57c-1.12,2.457-2.237,4.908-3.357,7.366
				c2.22,0.73,2.253,0.706,2.734-0.398c0.707-1.621,1.414-3.239,2.12-4.859C90.375,267.573,90.345,267.573,88.396,266.57z
				 M116.183,274.643c-0.561,2.611-1.123,5.221-1.681,7.815c1.938,0.308,2.673-0.006,2.763-0.96c0.164-1.741,0.622-3.444,0.96-5.163
				C118.45,275.191,118.33,275.119,116.183,274.643z"/>
			<path fill-rule="evenodd" clip-rule="evenodd" d="M46.419,233.165c4.393,5.055,6.193,9.763,5.792,14.735
				c-0.187,2.347,0.088,4.016,1.171,5.873c1.271-1.535,2.517-3.039,3.892-4.701c-1.135-0.187-2.118-0.361-3.153-0.559
				c-0.054-1.051-0.098-2.084-0.126-3.178c3.345,0.357,6.581,1.694,9.886,3.972c5.869,4.045,9.631,8.963,10.124,14.166
				c0.163,1.746,0.875,3.526,2.519,5.484c1-1.846,1.927-3.558,2.954-5.452c-1.245,0.042-2.267,0.063-3.377,0.074
				c-0.292-0.992-0.57-1.994-0.862-3.109c3.849-0.281,7.742,0.576,12.143,2.467c-0.382,0.799-0.736,1.539-1.091,2.28
				c-0.095-0.065-0.191-0.131-0.282-0.197c-0.352,0.198-0.876,0.313-1.026,0.602c-1.105,2.149-2.158,4.32-3.171,6.509
				c-0.115,0.24,0.11,0.628,0.182,0.95c0.157,0.049,0.315,0.1,0.475,0.149c-0.354,0.741-0.709,1.486-1.158,2.424
				c-1.602-0.892-3.204-1.714-4.58-2.7c-4.463-3.2-6.321-6.777-6.789-10.386c-0.183-1.42-0.854-2.97-1.294-4.464
				c-0.086-0.297-0.372-0.627-0.646-1.085c-1.16,1.72-2.237,3.318-3.435,5.093c1.251,0.1,2.271,0.167,3.341,0.225
				c0.242,1.044,0.497,2.069,0.788,3.167c-3.662,0.134-7.544-1.035-11.28-3.563c-6.597-4.464-9.604-10.425-8.792-15.659
				c0.286-1.844,0.017-3.876-0.751-5.589c-1.386,1.39-2.748,2.756-4.26,4.272c1.109,0.317,2.049,0.567,3.074,0.83
				c0.01,1.031,0.031,2.082,0.07,3.267c-3.832-0.644-7.512-2.793-10.708-6.442c0.659-0.6,1.317-1.201,1.976-1.801
				c0.235,0.248,0.468,0.492,0.769,0.803c2.04-1.888,4.032-3.755,6.039-5.584c0.418-0.382-0.102-0.714-0.385-1.072
				C45.103,234.365,45.761,233.765,46.419,233.165z M60.903,250.705c-1.827-1.119-1.816-1.136-2.569-0.202
				c-1.134,1.406-2.269,2.814-3.403,4.22c-0.708,0.878-0.633,1.116,0.962,2.394C57.55,254.995,59.206,252.878,60.903,250.705z
				 M83.54,264.412c-2.137-0.744-2.125-0.762-2.68,0.296c-0.836,1.593-1.674,3.187-2.511,4.78c-0.523,0.997-0.399,1.213,1.544,2.159
				C81.099,269.256,82.304,266.863,83.54,264.412z M58.909,259.714c1.74-2.358,3.426-4.646,5.115-6.937
				c-0.581-0.418-1.08-0.785-1.574-1.153c-1.758,2.312-3.479,4.577-5.217,6.863C57.805,258.913,58.317,259.287,58.909,259.714z
				 M46.101,237.213c-1.968,1.869-3.931,3.732-5.899,5.602c1.57,1.44,1.604,1.434,2.47,0.586c1.271-1.243,2.541-2.485,3.811-3.729
				C47.349,238.824,47.328,238.811,46.101,237.213z M65.462,254.116c-1.574,2.2-3.148,4.402-4.714,6.589
				c1.405,0.932,2.123,0.889,2.605,0.047c0.881-1.536,1.991-2.938,3-4.396C67.025,255.385,66.965,255.275,65.462,254.116z"/>
			<path fill-rule="evenodd" clip-rule="evenodd" d="M22.21,191.59c2.165,6.277,2.008,11.28-0.242,15.742
				c-1.06,2.105-1.447,3.751-1.19,5.855c1.727-0.968,3.418-1.916,5.288-2.963c-0.945-0.578-1.758-1.093-2.612-1.644
				c0.352-0.993,0.705-1.964,1.094-2.987c2.876,1.526,5.268,3.92,7.316,7.196c3.643,5.827,4.941,11.679,3.266,16.644
				c-0.562,1.668-0.669,3.555-0.055,5.931c1.612-1.35,3.107-2.602,4.763-3.986c-1.085-0.396-1.974-0.731-2.938-1.113
				c0.151-1.015,0.315-2.035,0.513-3.163c3.451,1.093,6.457,3.243,9.41,6.509c-0.654,0.602-1.262,1.16-1.869,1.719
				c-0.054-0.095-0.107-0.189-0.158-0.283c-0.379,0.062-0.873-0.016-1.12,0.196c-1.826,1.592-3.617,3.223-5.383,4.882
				c-0.197,0.181-0.165,0.618-0.237,0.938c0.112,0.099,0.227,0.201,0.341,0.303c-0.607,0.559-1.215,1.117-1.984,1.824
				c-0.988-1.373-2.021-2.688-2.794-4.075c-2.509-4.497-2.694-8.448-1.659-11.941c0.41-1.372,0.445-3.041,0.653-4.576
				c0.043-0.304-0.077-0.703-0.137-1.224c-1.7,1.177-3.279,2.271-5.035,3.486c1.06,0.534,1.927,0.952,2.84,1.383
				c-0.205,1.048-0.395,2.088-0.582,3.202c-3.244-1.164-6.181-3.616-8.499-7.273c-4.096-6.463-4.56-13.065-1.857-17.626
				c0.952-1.608,1.469-3.586,1.408-5.451c-1.775,0.792-3.52,1.572-5.457,2.437c0.888,0.688,1.647,1.263,2.479,1.875
				c-0.379,0.956-0.755,1.937-1.165,3.05c-3.221-1.972-5.753-5.285-7.338-9.822c0.822-0.32,1.643-0.642,2.465-0.962
				c0.124,0.312,0.246,0.627,0.406,1.022c2.556-1.019,5.055-2.027,7.562-3.014c0.523-0.205,0.169-0.697,0.042-1.131
				C20.566,192.229,21.389,191.91,22.21,191.59z M28.676,213.024c-1.193-1.684-1.181-1.694-2.213-1.1
				c-1.555,0.896-3.111,1.794-4.666,2.69c-0.971,0.56-0.994,0.811-0.07,2.557C24.026,215.8,26.322,214.43,28.676,213.024z
				 M42.947,233.63c-1.516-1.427-1.506-1.441-2.415-0.662c-1.368,1.174-2.737,2.346-4.106,3.521
				c-0.856,0.734-0.833,0.98,0.434,2.525C38.873,237.233,40.885,235.454,42.947,233.63z M23.396,220.642
				c2.464-1.562,4.854-3.076,7.246-4.593c-0.351-0.593-0.65-1.105-0.947-1.624c-2.462,1.513-4.872,2.995-7.306,4.491
				C22.733,219.519,23.038,220.037,23.396,220.642z M20.431,195.229c-2.482,1.027-4.958,2.05-7.442,3.077
				c0.901,1.903,0.932,1.909,2.034,1.434c1.617-0.697,3.232-1.395,4.848-2.092C20.973,197.173,20.962,197.155,20.431,195.229z
				 M31.387,217.797c-2.254,1.474-4.509,2.948-6.752,4.414c0.876,1.358,1.52,1.57,2.279,0.964c1.384-1.105,2.911-2.008,4.376-2.998
				C32.265,219.519,32.258,219.398,31.387,217.797z"/>
			<path fill-rule="evenodd" clip-rule="evenodd" d="M14.145,143.878c-0.059,6.672-1.897,11.294-5.51,14.647
				c-1.704,1.58-2.624,2.975-3.104,5.035c1.94-0.273,3.841-0.542,5.94-0.838c-0.683-0.887-1.265-1.661-1.874-2.49
				c0.666-0.801,1.327-1.579,2.037-2.394c2.167,2.479,3.582,5.591,4.355,9.396c1.375,6.766,0.492,12.686-2.826,16.699
				c-1.116,1.344-1.888,3.063-2.184,5.492c1.968-0.671,3.792-1.296,5.813-1.984c-0.854-0.759-1.549-1.396-2.298-2.096
				c0.503-0.892,1.021-1.777,1.605-2.759c2.791,2.269,4.78,5.357,6.276,9.452c-0.819,0.322-1.578,0.621-2.337,0.92
				c-0.014-0.104-0.028-0.21-0.04-0.315c-0.369-0.08-0.793-0.332-1.095-0.222c-2.253,0.815-4.489,1.684-6.71,2.587
				c-0.246,0.1-0.376,0.517-0.561,0.786c0.068,0.137,0.135,0.271,0.204,0.408c-0.76,0.3-1.521,0.6-2.483,0.979
				c-0.4-1.636-0.864-3.233-1.07-4.801c-0.667-5.089,0.563-8.833,2.76-11.704c0.865-1.13,1.485-2.672,2.218-4.023
				c0.145-0.274,0.177-0.689,0.305-1.196c-1.988,0.479-3.835,0.925-5.888,1.419c0.794,0.885,1.448,1.587,2.14,2.32
				c-0.56,0.903-1.103,1.802-1.672,2.769c-2.582-2.261-4.434-5.609-5.317-9.861c-1.562-7.523,0.231-13.87,4.295-17.145
				c1.431-1.156,2.582-2.816,3.15-4.584c-1.926,0.091-3.819,0.183-5.921,0.282c0.6,0.969,1.118,1.78,1.688,2.659
				c-0.676,0.76-1.358,1.538-2.117,2.427c-2.344-3.019-3.601-7.046-3.577-11.878c0.876,0.001,1.752,0.001,2.628,0.002
				c0.012,0.339,0.024,0.677,0.042,1.107c2.732-0.019,5.405-0.049,8.082-0.051c0.558-0.001,0.393-0.593,0.418-1.048
				C12.394,143.876,13.27,143.877,14.145,143.878z M12.942,166.29c-0.53-2.007-0.517-2.015-1.683-1.836
				c-1.756,0.27-3.514,0.54-5.268,0.811c-1.095,0.169-1.202,0.396-0.943,2.364C7.66,167.187,10.268,166.743,12.942,166.29z
				 M18.826,190.658c-0.867-1.875-0.854-1.882-1.969-1.486c-1.681,0.596-3.362,1.19-5.045,1.787
				c-1.052,0.373-1.117,0.611-0.521,2.504C13.784,192.537,16.273,191.607,18.826,190.658z M5.398,171.473
				c2.831-0.56,5.578-1.105,8.326-1.648c-0.12-0.679-0.22-1.267-0.317-1.86c-2.812,0.515-5.564,1.02-8.344,1.528
				C5.174,170.179,5.275,170.778,5.398,171.473z M11.267,146.638c-2.666,0.053-5.325,0.108-7.992,0.161
				c0.208,2.112,0.234,2.124,1.424,2.082c1.746-0.062,3.49-0.123,5.235-0.184C11.125,148.655,11.122,148.634,11.267,146.638z
				 M13.808,171.729c-2.606,0.554-5.212,1.107-7.804,1.658c0.339,1.584,0.862,2.021,1.777,1.73c1.668-0.528,3.401-0.816,5.106-1.204
				C14.021,173.654,14.058,173.541,13.808,171.729z"/>
		</g>
	</g>
	<g>
		<g>
			<path fill-rule="evenodd" clip-rule="evenodd" d="M265.627,192.047c2.288-6.232,5.535-9.89,10.029-11.701
				c2.118-0.854,3.438-1.818,4.566-3.571c-1.908-0.458-3.777-0.907-5.844-1.403c0.349,1.08,0.64,2.02,0.938,3.021
				c-0.889,0.508-1.768,0.993-2.702,1.495c-1.213-3.123-1.511-6.562-0.982-10.414c0.938-6.848,3.718-12.064,8.154-14.602
				c1.491-0.854,2.78-2.18,3.865-4.348c-2.067-0.097-3.982-0.185-6.104-0.283c0.548,1.026,0.987,1.879,1.458,2.813
				c-0.767,0.647-1.544,1.29-2.416,1.994c-1.864-3.155-2.707-6.783-2.74-11.165c0.874,0,1.685-0.001,2.495-0.002
				c-0.021,0.104-0.044,0.21-0.066,0.312c0.316,0.212,0.632,0.598,0.951,0.608c2.38,0.067,4.76,0.074,7.142,0.048
				c0.263-0.002,0.527-0.34,0.789-0.527c-0.018-0.149-0.037-0.304-0.056-0.457c0.812,0,1.622,0,2.648-0.001
				c-0.173,1.675-0.267,3.337-0.595,4.88c-1.064,5.013-3.459,8.072-6.466,9.955c-1.183,0.739-2.271,1.957-3.403,2.955
				c-0.227,0.197-0.395,0.58-0.679,1.004c2.02,0.284,3.898,0.547,5.984,0.84c-0.453-1.118-0.834-2.021-1.241-2.963
				c0.823-0.642,1.629-1.28,2.48-1.977c1.673,3.068,2.306,6.891,1.732,11.206c-1.012,7.623-4.784,12.907-9.677,14.483
				c-1.726,0.555-3.355,1.693-4.474,3.137c1.836,0.624,3.641,1.236,5.644,1.917c-0.241-1.129-0.457-2.083-0.702-3.115
				c0.884-0.46,1.783-0.938,2.787-1.493c1.197,3.693,1.045,7.931-0.594,12.45c-0.821-0.324-1.645-0.647-2.465-0.971
				c0.102-0.32,0.204-0.643,0.332-1.053c-2.565-0.989-5.081-1.95-7.59-2.934c-0.522-0.205-0.564,0.414-0.739,0.831
				C267.269,192.694,266.447,192.37,265.627,192.047z M274.175,171.48c-0.164,2.078-0.178,2.077,0.974,2.339
				c1.734,0.394,3.47,0.787,5.204,1.181c1.083,0.246,1.257,0.078,1.663-1.865C279.425,172.588,276.832,172.041,274.175,171.48z
				 M276.714,146.483c0.188,2.074,0.171,2.076,1.347,2.116c1.772,0.061,3.548,0.123,5.32,0.183c1.109,0.037,1.247-0.159,1.32-2.148
				C282.061,146.584,279.42,146.534,276.714,146.483z M282.954,169.403c-2.839-0.519-5.59-1.022-8.345-1.525
				c-0.111,0.681-0.214,1.272-0.317,1.86c2.806,0.554,5.55,1.097,8.324,1.644C282.736,170.7,282.841,170.099,282.954,169.403z
				 M269.243,190.521c2.517,0.934,5.025,1.864,7.54,2.797c0.509-2.056,0.491-2.078-0.639-2.479c-1.656-0.586-3.31-1.172-4.965-1.758
				C270.051,188.683,270.045,188.703,269.243,190.521z M275.155,166.063c2.625,0.441,5.247,0.882,7.858,1.32
				c0.204-1.613-0.141-2.207-1.094-2.274c-1.739-0.123-3.455-0.486-5.182-0.751C275.589,164.183,275.517,164.275,275.155,166.063z"
				/>
			<path fill-rule="evenodd" clip-rule="evenodd" d="M241.178,233.617c4.5-4.961,8.868-7.186,13.75-7.228
				c2.301-0.019,3.894-0.438,5.576-1.662c-1.633-1.129-3.234-2.236-5.001-3.458c-0.055,1.138-0.116,2.125-0.192,3.168
				c-1.017,0.146-2.015,0.28-3.076,0.406c-0.021-3.364,0.915-6.687,2.76-10.099c3.273-6.06,7.65-9.935,12.67-10.683
				c1.687-0.252,3.344-1.017,5.089-2.65c-1.906-0.849-3.671-1.637-5.627-2.508c0.169,1.163,0.293,2.123,0.419,3.172
				c-0.938,0.325-1.88,0.64-2.937,0.98c-0.682-3.639-0.252-7.348,1.176-11.469c0.819,0.32,1.579,0.616,2.339,0.913
				c-0.056,0.09-0.11,0.181-0.167,0.271c0.228,0.312,0.394,0.791,0.69,0.916c2.209,0.937,4.439,1.814,6.682,2.665
				c0.247,0.094,0.605-0.127,0.913-0.205c0.034-0.149,0.068-0.3,0.102-0.448c0.761,0.297,1.521,0.595,2.484,0.971
				c-0.719,1.507-1.365,3.033-2.19,4.361c-2.675,4.305-5.958,6.29-9.421,6.952c-1.361,0.258-2.801,0.999-4.204,1.518
				c-0.281,0.103-0.564,0.397-0.979,0.693c1.797,1.007,3.473,1.942,5.329,2.982c-0.041-1.215-0.092-2.198-0.151-3.231
				c0.99-0.298,1.967-0.602,3.002-0.94c0.526,3.486-0.189,7.3-2.229,11.128c-3.601,6.763-9.054,10.311-14.237,9.983
				c-1.827-0.116-3.777,0.343-5.366,1.281c1.504,1.257,2.984,2.494,4.625,3.866c0.186-1.141,0.333-2.109,0.479-3.163
				c1.001-0.104,2.021-0.225,3.17-0.375c-0.207,3.889-1.903,7.788-5.148,11.395c-0.656-0.604-1.311-1.205-1.967-1.809
				c0.218-0.264,0.437-0.527,0.711-0.862c-2.06-1.865-4.098-3.686-6.096-5.524c-0.416-0.383-0.688,0.178-1.009,0.502
				C242.49,234.824,241.833,234.221,241.178,233.617z M256.685,217.561c-0.884,1.884-0.901,1.878,0.089,2.545
				c1.493,1.006,2.983,2.01,4.476,3.016c0.931,0.628,1.157,0.53,2.22-1.138C261.225,220.521,258.985,219.06,256.685,217.561z
				 M267.603,195.074c-0.518,2.015-0.533,2.014,0.556,2.484c1.642,0.707,3.284,1.415,4.926,2.121
				c1.028,0.441,1.224,0.305,1.957-1.533C272.581,197.132,270.123,196.114,267.603,195.074z M265.655,218.838
				c-2.486-1.526-4.896-3.01-7.31-4.491c-0.341,0.596-0.64,1.113-0.942,1.625c2.443,1.548,4.833,3.062,7.248,4.593
				C265.004,219.968,265.307,219.447,265.655,218.838z M245.172,233.526c2.033,1.796,4.062,3.585,6.095,5.38
				c1.243-1.727,1.229-1.753,0.31-2.541c-1.349-1.155-2.696-2.311-4.045-3.466C246.612,232.112,246.604,232.127,245.172,233.526z
				 M259.488,212.852c2.312,1.376,4.624,2.754,6.924,4.122c0.751-1.437,0.631-2.122-0.24-2.534c-1.59-0.751-3.076-1.724-4.605-2.604
				C260.549,211.249,260.449,211.307,259.488,212.852z"/>
			<path fill-rule="evenodd" clip-rule="evenodd" d="M200.615,262.946c6.702-2.869,11.91-3.293,16.693-1.515
				c2.255,0.838,3.981,1.045,6.125,0.539c-1.114-1.649-2.204-3.266-3.41-5.052c-0.526,1.029-1.002,1.919-1.517,2.854
				c-1.053-0.242-2.084-0.495-3.174-0.773c1.409-3.112,3.72-5.83,6.892-8.301c5.643-4.397,11.32-6.386,16.395-5.234
				c1.704,0.389,3.582,0.285,5.862-0.593c-1.488-1.491-2.867-2.873-4.395-4.402c-0.284,1.146-0.533,2.084-0.814,3.104
				c-1.019-0.041-2.042-0.094-3.181-0.167c0.759-3.632,2.59-6.926,5.48-10.242c0.657,0.599,1.266,1.155,1.875,1.711
				c-0.086,0.063-0.174,0.125-0.262,0.189c0.1,0.373,0.077,0.883,0.312,1.109c1.744,1.683,3.528,3.321,5.337,4.935
				c0.198,0.179,0.622,0.104,0.943,0.144c0.086-0.125,0.171-0.249,0.259-0.377c0.61,0.557,1.222,1.112,1.993,1.816
				c-1.243,1.141-2.429,2.321-3.713,3.252c-4.175,3.027-8.083,3.663-11.649,3c-1.404-0.26-3.071-0.105-4.623-0.142
				c-0.312-0.006-0.696,0.158-1.212,0.28c1.324,1.598,2.555,3.083,3.922,4.733c0.444-1.142,0.785-2.073,1.133-3.052
				c1.065,0.089,2.118,0.165,3.24,0.231c-0.86,3.433-3.049,6.706-6.565,9.496c-6.214,4.931-13.063,6.175-18.001,3.938
				c-1.743-0.788-3.855-1.093-5.831-0.824c0.935,1.72,1.855,3.411,2.875,5.288c0.688-0.983,1.247-1.817,1.844-2.733
				c1.03,0.277,2.082,0.548,3.269,0.839c-1.869,3.507-5.229,6.466-10.073,8.561c-0.383-0.802-0.766-1.601-1.148-2.401
				c0.333-0.16,0.665-0.319,1.085-0.523c-1.215-2.488-2.409-4.927-3.588-7.366c-0.245-0.508-0.763-0.098-1.229,0.08
				C201.38,264.548,200.998,263.747,200.615,262.946z M222.701,253.924c-1.628,1.414-1.646,1.404-0.963,2.389
				c1.028,1.482,2.06,2.966,3.091,4.448c0.643,0.926,0.904,0.92,2.617-0.228C225.878,258.349,224.31,256.163,222.701,253.924z
				 M241.988,237.082c-1.248,1.685-1.267,1.674-0.41,2.511c1.291,1.262,2.583,2.525,3.875,3.788c0.809,0.79,1.049,0.738,2.438-0.706
				C245.939,240.825,243.987,238.977,241.988,237.082z M230.839,258.432c-1.775-2.334-3.497-4.598-5.221-6.862
				c-0.569,0.425-1.069,0.792-1.572,1.154c1.726,2.337,3.416,4.624,5.122,6.935C229.751,259.238,230.259,258.865,230.839,258.432z
				 M204.623,264.359c1.221,2.414,2.437,4.822,3.656,7.235c1.998-1.122,1.995-1.153,1.432-2.224
				c-0.825-1.568-1.648-3.138-2.474-4.705C206.675,263.597,206.663,263.609,204.623,264.359z M227.326,250.604
				c1.67,2.13,3.339,4.261,4.999,6.379c1.297-1.051,1.455-1.732,0.783-2.436c-1.225-1.281-2.26-2.737-3.376-4.117
				C228.989,249.511,228.871,249.528,227.326,250.604z"/>
			<path fill-rule="evenodd" clip-rule="evenodd" d="M143.755,274.1c8.902,0.053,14.68,1.694,18.872,5.17
				c1.979,1.638,3.711,2.498,6.226,2.867c-0.351-1.932-0.693-3.827-1.073-5.918c-1.072,0.733-2.022,1.361-3.039,2.011
				c-0.995-0.629-1.965-1.258-2.988-1.935c3.081-2.278,6.892-3.857,11.418-4.888c8.048-1.834,14.747-1.496,19.348,1.484
				c1.544,1.002,3.488,1.622,6.183,1.679c-0.812-1.93-1.562-3.72-2.396-5.699c-0.808,0.942-1.492,1.709-2.249,2.537
				c-1.006-0.425-2.018-0.861-3.135-1.361c2.465-3.037,5.817-5.36,10.175-7.319c0.385,0.798,0.743,1.538,1.101,2.277
				c-0.111,0.024-0.227,0.052-0.341,0.077c-0.071,0.382-0.321,0.837-0.19,1.133c0.981,2.202,2.021,4.381,3.095,6.545
				c0.119,0.238,0.571,0.331,0.873,0.487c0.144-0.083,0.287-0.168,0.432-0.252c0.357,0.74,0.716,1.483,1.168,2.421
				c-1.747,0.58-3.462,1.216-5.175,1.586c-5.559,1.201-9.833,0.294-13.156-1.669c-1.305-0.773-3.083-1.265-4.656-1.89
				c-0.312-0.127-0.793-0.123-1.38-0.209c0.595,1.964,1.147,3.793,1.762,5.822c1.003-0.873,1.802-1.594,2.625-2.356
				c1.045,0.488,2.078,0.955,3.189,1.442c-2.494,2.812-6.294,4.973-11.308,6.166c-8.858,2.109-16.811,0.57-20.973-3.387
				c-1.469-1.395-3.591-2.496-5.874-3.027c0.123,1.926,0.245,3.815,0.379,5.917c1.25-0.622,2.294-1.157,3.409-1.755
				c0.969,0.654,1.962,1.312,3.089,2.039c-3.802,2.454-8.964,3.821-15.409,3.802c0-0.877,0-1.752,0-2.628
				c0.452-0.013,0.903-0.026,1.474-0.046c-0.028-2.731-0.062-5.413-0.076-8.085c-0.003-0.557-0.79-0.389-1.397-0.412
				C143.755,275.852,143.755,274.975,143.755,274.1z M172.08,274.531c-2.402,0.66-2.421,0.643-2.192,1.803
				c0.345,1.748,0.688,3.497,1.034,5.243c0.216,1.09,0.5,1.188,2.861,0.802C173.221,279.784,172.657,277.19,172.08,274.531z
				 M199.749,266.479c-2.006,1.075-2.022,1.062-1.546,2.153c0.719,1.646,1.436,3.29,2.156,4.936c0.45,1.03,0.718,1.072,2.754,0.271
				C202.001,271.405,200.889,268.973,199.749,266.479z M178.355,281.768c-0.705-2.811-1.388-5.534-2.072-8.261
				c-0.799,0.169-1.504,0.309-2.204,0.445c0.651,2.794,1.29,5.53,1.935,8.293C176.83,282.086,177.535,281.941,178.355,281.768z
				 M147.417,276.962c0.073,2.667,0.146,5.328,0.22,7.994c2.776-0.229,2.777-0.262,2.722-1.452
				c-0.081-1.744-0.164-3.489-0.247-5.232C150.055,277.083,150.043,277.087,147.417,276.962z M178.518,273.283
				c0.694,2.583,1.389,5.164,2.079,7.733c1.855-0.462,2.344-1.023,1.989-1.922c-0.646-1.639-1.014-3.364-1.498-5.053
				C180.766,272.918,180.637,272.896,178.518,273.283z"/>
			<path fill-rule="evenodd" clip-rule="evenodd" d="M201.105,25.27c-6.633-2.992-10.666-6.614-12.604-11.316
				c-0.916-2.217-1.987-3.639-3.992-4.92c-0.57,1.887-1.127,3.737-1.744,5.78c1.255-0.264,2.344-0.478,3.499-0.691
				c0.557,0.94,1.088,1.871,1.632,2.861c-3.577,0.945-7.531,0.954-12.07,0.146c-8.073-1.435-14.589-4.436-17.781-8.964
				c-1.075-1.522-2.747-2.857-5.55-3.988c-0.129,2.067-0.248,3.982-0.381,6.103c1.332-0.526,2.426-0.946,3.622-1.39
				c0.819,0.786,1.633,1.584,2.519,2.483c-3.991,1.757-8.645,2.503-14.489,2.532c0-0.874,0-1.685,0-2.496
				c0.141,0.022,0.28,0.044,0.421,0.067c0.277-0.316,0.792-0.628,0.805-0.948c0.09-2.38,0.108-4.762,0.071-7.144
				c-0.002-0.263-0.45-0.527-0.699-0.789c-0.201,0.018-0.406,0.035-0.607,0.054c0-0.812,0-1.623,0-2.65
				c2.237,0.174,4.427,0.284,6.438,0.635c6.536,1.144,10.336,3.675,12.661,6.771c0.915,1.218,2.408,2.368,3.625,3.556
				c0.244,0.238,0.706,0.423,1.225,0.733c0.364-2.012,0.703-3.882,1.079-5.959c-1.37,0.394-2.48,0.729-3.646,1.092
				c-0.787-0.856-1.576-1.689-2.439-2.572c3.836-1.546,8.537-1.988,13.674-1.123c9.076,1.528,14.919,5.839,16.536,10.94
				c0.569,1.798,1.782,3.557,3.337,4.836c0.755-1.798,1.497-3.566,2.32-5.528c-1.256,0.131-2.318,0.255-3.479,0.402
				c-0.485-0.94-0.992-1.894-1.584-2.961c4.181-0.867,8.875-0.291,13.688,1.859c-0.387,0.8-0.771,1.599-1.157,2.398
				c-0.342-0.137-0.687-0.275-1.126-0.448c-1.183,2.502-2.334,4.957-3.508,7.402c-0.244,0.509,0.423,0.618,0.867,0.841
				C201.879,23.671,201.491,24.471,201.105,25.27z M178.233,14.715c2.435,0.32,2.424,0.34,2.75-0.8
				c0.491-1.717,0.985-3.436,1.477-5.154c0.307-1.072,0.119-1.263-2.153-1.816C179.621,9.513,178.936,12.082,178.233,14.715z
				 M147.215,11.055c2.73-0.168,2.721-0.146,2.775-1.322c0.084-1.772,0.163-3.546,0.244-5.318c0.051-1.109-0.196-1.256-2.814-1.348
				C147.352,5.708,147.285,8.349,147.215,11.055z M175.907,5.735c-0.655,2.819-1.29,5.554-1.927,8.29
				c0.808,0.157,1.506,0.299,2.202,0.446c0.697-2.784,1.379-5.509,2.068-8.261C177.443,6.04,176.736,5.896,175.907,5.735z
				 M199.602,21.433c1.12-2.458,2.238-4.909,3.357-7.366c-2.22-0.73-2.252-0.712-2.734,0.394c-0.706,1.621-1.411,3.24-2.117,4.86
				C197.626,20.426,197.652,20.43,199.602,21.433z M171.815,13.357c0.561-2.61,1.123-5.221,1.681-7.816
				c-1.938-0.307-2.672,0.007-2.762,0.961c-0.165,1.741-0.627,3.44-0.965,5.159C169.545,12.805,169.668,12.881,171.815,13.357z"/>
			<path fill-rule="evenodd" clip-rule="evenodd" d="M241.58,54.837c-4.395-5.058-6.192-9.764-5.791-14.739
				c0.188-2.345-0.089-4.016-1.172-5.872c-1.271,1.535-2.516,3.041-3.891,4.702c1.135,0.187,2.116,0.359,3.15,0.557
				c0.058,1.054,0.101,2.089,0.129,3.183c-3.348-0.359-6.584-1.7-9.886-3.976c-5.872-4.046-9.633-8.962-10.126-14.165
				c-0.164-1.748-0.876-3.527-2.517-5.485c-1.001,1.847-1.927,3.558-2.954,5.453c1.243-0.043,2.265-0.062,3.375-0.073
				c0.292,0.993,0.574,1.993,0.864,3.107c-3.849,0.281-7.749-0.579-12.146-2.468c0.382-0.799,0.736-1.54,1.091-2.281
				c0.097,0.066,0.19,0.133,0.285,0.2c0.348-0.198,0.875-0.315,1.026-0.603c1.106-2.147,2.159-4.319,3.174-6.508
				c0.113-0.241-0.109-0.631-0.181-0.951c-0.16-0.051-0.318-0.101-0.477-0.149c0.354-0.742,0.708-1.483,1.157-2.421
				c1.599,0.89,3.205,1.711,4.581,2.697c4.463,3.197,6.316,6.779,6.785,10.387c0.185,1.42,0.856,2.972,1.298,4.466
				c0.087,0.299,0.368,0.624,0.644,1.081c1.159-1.718,2.237-3.317,3.435-5.091c-1.25-0.099-2.268-0.163-3.341-0.223
				c-0.243-1.045-0.499-2.074-0.786-3.169c3.66-0.135,7.545,1.035,11.279,3.563c6.596,4.463,9.603,10.426,8.79,15.66
				c-0.285,1.846-0.015,3.875,0.752,5.587c1.386-1.39,2.747-2.755,4.259-4.272c-1.106-0.313-2.047-0.566-3.072-0.828
				c-0.009-1.03-0.029-2.081-0.068-3.264c3.83,0.641,7.511,2.792,10.708,6.442c-0.659,0.601-1.318,1.201-1.978,1.801
				c-0.234-0.246-0.469-0.495-0.769-0.807c-2.04,1.888-4.034,3.743-6.042,5.583c-0.419,0.383,0.104,0.716,0.39,1.077
				C242.898,53.637,242.238,54.237,241.58,54.837z M227.097,37.296c1.828,1.12,1.814,1.135,2.567,0.202
				c1.135-1.407,2.27-2.813,3.403-4.219c0.708-0.878,0.636-1.118-0.961-2.397C230.45,33.001,228.795,35.123,227.097,37.296z
				 M204.46,23.588c2.137,0.745,2.125,0.762,2.68-0.295c0.837-1.593,1.674-3.186,2.511-4.78c0.524-0.998,0.395-1.215-1.542-2.16
				C206.902,18.746,205.695,21.138,204.46,23.588z M229.093,28.287c-1.74,2.359-3.428,4.648-5.116,6.938
				c0.579,0.417,1.08,0.784,1.575,1.153c1.758-2.313,3.479-4.577,5.217-6.864C230.193,29.083,229.686,28.713,229.093,28.287z
				 M241.896,50.787c1.969-1.87,3.934-3.734,5.9-5.602c-1.568-1.439-1.602-1.434-2.469-0.585c-1.271,1.244-2.539,2.486-3.81,3.729
				C240.652,49.177,240.668,49.19,241.896,50.787z M222.537,33.883c1.574-2.2,3.148-4.401,4.714-6.589
				c-1.406-0.932-2.122-0.891-2.606-0.048c-0.884,1.538-1.988,2.94-2.998,4.398C220.975,32.615,221.035,32.724,222.537,33.883z"/>
			<path fill-rule="evenodd" clip-rule="evenodd" d="M265.79,96.413c-2.165-6.278-2.008-11.281,0.241-15.746
				c1.06-2.106,1.448-3.749,1.191-5.853c-1.727,0.967-3.416,1.916-5.285,2.963c0.943,0.576,1.757,1.093,2.609,1.642
				c-0.352,0.994-0.707,1.967-1.096,2.991c-2.877-1.527-5.269-3.925-7.315-7.2c-3.645-5.828-4.941-11.679-3.267-16.644
				c0.563-1.669,0.667-3.555,0.053-5.934c-1.613,1.351-3.108,2.603-4.764,3.988c1.089,0.398,1.978,0.733,2.941,1.114
				c-0.151,1.015-0.312,2.036-0.511,3.164c-3.451-1.092-6.461-3.245-9.413-6.508c0.654-0.602,1.261-1.16,1.868-1.718
				c0.055,0.095,0.109,0.187,0.163,0.282c0.376-0.062,0.87,0.015,1.115-0.199c1.829-1.588,3.617-3.22,5.384-4.88
				c0.194-0.183,0.167-0.617,0.239-0.936c-0.114-0.101-0.228-0.203-0.344-0.304c0.607-0.559,1.215-1.118,1.983-1.825
				c0.99,1.375,2.021,2.689,2.794,4.075c2.513,4.499,2.698,8.452,1.661,11.944c-0.41,1.371-0.444,3.04-0.65,4.576
				c-0.043,0.305,0.074,0.703,0.136,1.224c1.699-1.177,3.282-2.271,5.037-3.485c-1.062-0.536-1.929-0.955-2.843-1.386
				c0.206-1.048,0.396-2.086,0.583-3.199c3.243,1.162,6.178,3.616,8.494,7.272c4.096,6.462,4.563,13.063,1.86,17.622
				c-0.953,1.609-1.471,3.587-1.41,5.453c1.775-0.792,3.521-1.571,5.459-2.436c-0.889-0.688-1.65-1.263-2.481-1.875
				c0.379-0.955,0.756-1.937,1.166-3.046c3.22,1.968,5.755,5.283,7.34,9.821c-0.822,0.321-1.643,0.64-2.464,0.96
				c-0.124-0.313-0.249-0.626-0.407-1.021c-2.555,1.019-5.056,2.025-7.563,3.011c-0.522,0.205-0.17,0.7-0.042,1.134
				C267.433,95.772,266.611,96.093,265.79,96.413z M259.323,74.976c1.193,1.684,1.182,1.693,2.214,1.099
				c1.555-0.896,3.112-1.792,4.666-2.69c0.971-0.56,0.992-0.809,0.066-2.558C263.974,72.197,261.678,73.569,259.323,74.976z
				 M245.053,54.373c1.516,1.427,1.504,1.441,2.412,0.662c1.369-1.174,2.74-2.349,4.109-3.523c0.857-0.735,0.831-0.979-0.435-2.524
				C249.127,50.768,247.114,52.548,245.053,54.373z M264.606,67.358c-2.465,1.563-4.854,3.079-7.246,4.596
				c0.35,0.59,0.647,1.105,0.944,1.624c2.462-1.514,4.872-2.995,7.307-4.491C265.268,68.486,264.964,67.962,264.606,67.358z
				 M267.568,92.771c2.483-1.027,4.958-2.053,7.439-3.079c-0.9-1.904-0.928-1.909-2.031-1.433c-1.616,0.697-3.231,1.395-4.848,2.092
				C267.027,90.826,267.037,90.845,267.568,92.771z M256.614,70.206c2.255-1.474,4.509-2.949,6.751-4.416
				c-0.878-1.361-1.521-1.574-2.28-0.968c-1.385,1.105-2.91,2.012-4.376,3.002C255.733,68.482,255.742,68.603,256.614,70.206z"/>
			<path fill-rule="evenodd" clip-rule="evenodd" d="M273.856,144.122c0.059-6.674,1.897-11.293,5.511-14.647
				c1.703-1.578,2.622-2.973,3.103-5.032c-1.939,0.273-3.84,0.541-5.938,0.837c0.683,0.883,1.265,1.663,1.873,2.489
				c-0.666,0.799-1.327,1.58-2.037,2.395c-2.168-2.479-3.581-5.592-4.354-9.396c-1.376-6.766-0.494-12.686,2.825-16.698
				c1.115-1.349,1.886-3.065,2.182-5.497c-1.97,0.671-3.796,1.293-5.816,1.982c0.854,0.761,1.552,1.398,2.302,2.1
				c-0.504,0.889-1.019,1.779-1.604,2.76c-2.792-2.271-4.784-5.359-6.281-9.454c0.818-0.323,1.579-0.622,2.339-0.921
				c0.015,0.106,0.029,0.212,0.043,0.318c0.367,0.081,0.791,0.328,1.094,0.217c2.252-0.816,4.485-1.682,6.708-2.585
				c0.245-0.1,0.381-0.515,0.564-0.784c-0.068-0.138-0.138-0.272-0.206-0.407c0.76-0.299,1.521-0.599,2.482-0.978
				c0.399,1.634,0.862,3.223,1.069,4.792c0.671,5.09-0.564,8.84-2.761,11.713c-0.864,1.13-1.482,2.672-2.214,4.026
				c-0.147,0.269-0.179,0.686-0.305,1.191c1.986-0.478,3.837-0.922,5.889-1.417c-0.794-0.884-1.449-1.589-2.142-2.32
				c0.56-0.905,1.104-1.8,1.671-2.769c2.582,2.261,4.434,5.61,5.316,9.865c1.562,7.521-0.231,13.863-4.294,17.14
				c-1.433,1.155-2.582,2.816-3.15,4.583c1.926-0.091,3.82-0.181,5.922-0.281c-0.601-0.969-1.121-1.781-1.692-2.658
				c0.676-0.758,1.359-1.539,2.117-2.426c2.344,3.016,3.604,7.046,3.58,11.878c-0.877-0.001-1.752-0.002-2.628-0.003
				c-0.013-0.337-0.024-0.676-0.042-1.105c-2.731,0.019-5.407,0.046-8.083,0.048c-0.558,0.001-0.391,0.592-0.415,1.048
				C275.609,144.124,274.731,144.123,273.856,144.122z M275.059,121.712c0.53,2.007,0.52,2.014,1.685,1.834
				c1.756-0.27,3.512-0.54,5.266-0.811c1.095-0.169,1.201-0.392,0.942-2.363C280.343,120.815,277.733,121.258,275.059,121.712z
				 M269.175,97.343c0.866,1.872,0.854,1.88,1.969,1.484c1.682-0.596,3.362-1.19,5.044-1.789c1.053-0.374,1.116-0.607,0.521-2.498
				C274.218,95.467,271.728,96.394,269.175,97.343z M282.603,116.531c-2.831,0.56-5.577,1.102-8.325,1.646
				c0.119,0.676,0.22,1.27,0.316,1.86c2.812-0.515,5.566-1.018,8.347-1.527C282.828,117.825,282.725,117.223,282.603,116.531z
				 M276.732,141.362c2.667-0.053,5.327-0.106,7.992-0.159c-0.208-2.112-0.232-2.125-1.424-2.083
				c-1.745,0.061-3.489,0.122-5.234,0.183C276.877,139.344,276.877,139.366,276.732,141.362z M274.191,116.274
				c2.606-0.554,5.211-1.108,7.803-1.659c-0.34-1.587-0.858-2.02-1.773-1.73c-1.669,0.527-3.4,0.814-5.105,1.202
				C273.98,114.345,273.94,114.462,274.191,116.274z"/>
		</g>
	</g>
</g>
<circle fill="none" cx="144" cy="144" r="126"/>
</svg>
